%TF.GenerationSoftware,KiCad,Pcbnew,(6.0.4-0)*%
%TF.CreationDate,2022-11-18T01:13:12+01:00*%
%TF.ProjectId,iO_Atletehe_rev1,694f5f41-746c-4657-9465-68655f726576,rev?*%
%TF.SameCoordinates,Original*%
%TF.FileFunction,Paste,Top*%
%TF.FilePolarity,Positive*%
%FSLAX46Y46*%
G04 Gerber Fmt 4.6, Leading zero omitted, Abs format (unit mm)*
G04 Created by KiCad (PCBNEW (6.0.4-0)) date 2022-11-18 01:13:12*
%MOMM*%
%LPD*%
G01*
G04 APERTURE LIST*
G04 Aperture macros list*
%AMRoundRect*
0 Rectangle with rounded corners*
0 $1 Rounding radius*
0 $2 $3 $4 $5 $6 $7 $8 $9 X,Y pos of 4 corners*
0 Add a 4 corners polygon primitive as box body*
4,1,4,$2,$3,$4,$5,$6,$7,$8,$9,$2,$3,0*
0 Add four circle primitives for the rounded corners*
1,1,$1+$1,$2,$3*
1,1,$1+$1,$4,$5*
1,1,$1+$1,$6,$7*
1,1,$1+$1,$8,$9*
0 Add four rect primitives between the rounded corners*
20,1,$1+$1,$2,$3,$4,$5,0*
20,1,$1+$1,$4,$5,$6,$7,0*
20,1,$1+$1,$6,$7,$8,$9,0*
20,1,$1+$1,$8,$9,$2,$3,0*%
%AMRotRect*
0 Rectangle, with rotation*
0 The origin of the aperture is its center*
0 $1 length*
0 $2 width*
0 $3 Rotation angle, in degrees counterclockwise*
0 Add horizontal line*
21,1,$1,$2,0,0,$3*%
G04 Aperture macros list end*
%ADD10R,1.000000X1.100000*%
%ADD11O,1.600000X1.600000*%
%ADD12R,1.600000X1.600000*%
%ADD13RotRect,1.100000X1.000000X315.000000*%
%ADD14R,1.270000X0.558800*%
%ADD15R,0.558800X1.270000*%
%ADD16R,0.800000X0.900000*%
%ADD17RotRect,1.100000X1.000000X112.500000*%
%ADD18R,1.525000X0.700000*%
%ADD19R,2.513000X3.402000*%
%ADD20R,1.100000X1.000000*%
%ADD21RotRect,1.100000X1.000000X292.500000*%
%ADD22R,0.450000X1.475000*%
%ADD23RoundRect,0.150000X-0.457297X-0.189419X0.189419X-0.457297X0.457297X0.189419X-0.189419X0.457297X0*%
%ADD24RotRect,1.100000X1.000000X247.500000*%
%ADD25RoundRect,0.150000X-0.189419X-0.457297X0.457297X-0.189419X0.189419X0.457297X-0.457297X0.189419X0*%
%ADD26R,1.550000X2.200000*%
%ADD27R,0.900000X0.800000*%
%ADD28R,1.200000X0.600000*%
%ADD29RotRect,1.100000X1.000000X135.000000*%
%ADD30RotRect,1.100000X1.000000X337.500000*%
%ADD31RotRect,1.100000X1.000000X67.500000*%
%ADD32RotRect,1.100000X1.000000X225.000000*%
%ADD33RotRect,1.100000X1.000000X22.500000*%
%ADD34R,2.500000X6.000000*%
%ADD35RoundRect,0.150000X0.457297X0.189419X-0.189419X0.457297X-0.457297X-0.189419X0.189419X-0.457297X0*%
%ADD36R,1.930400X5.334000*%
%ADD37RotRect,1.100000X1.000000X202.500000*%
%ADD38RotRect,1.100000X1.000000X157.500000*%
%ADD39R,0.600000X1.200000*%
%ADD40R,0.812800X1.676400*%
%ADD41RotRect,1.100000X1.000000X45.000000*%
%ADD42R,1.219200X2.235200*%
%ADD43R,3.600000X2.200000*%
G04 APERTURE END LIST*
D10*
%TO.C,R34*%
X171754800Y-99198800D03*
X171754800Y-97498800D03*
%TD*%
D11*
%TO.C,J3*%
X166827200Y-93573600D03*
D12*
X169367200Y-93573600D03*
D11*
X166827200Y-96113600D03*
X169367200Y-96113600D03*
X166827200Y-98653600D03*
X169367200Y-98653600D03*
%TD*%
D10*
%TO.C,C2*%
X139081100Y-101843600D03*
X139081100Y-100143600D03*
%TD*%
D13*
%TO.C,R20*%
X165400059Y-128652559D03*
X166602141Y-129854641D03*
%TD*%
D10*
%TO.C,R1*%
X163001100Y-119153600D03*
X163001100Y-120853600D03*
%TD*%
D14*
%TO.C,U1*%
X148793700Y-109803600D03*
X148793700Y-109003600D03*
X148793700Y-108203600D03*
X148793700Y-107403600D03*
X148793700Y-106603600D03*
X148793700Y-105803600D03*
X148793700Y-105003600D03*
X148793700Y-104203600D03*
D15*
X147301100Y-102711000D03*
X146501100Y-102711000D03*
X145701100Y-102711000D03*
X144901100Y-102711000D03*
X144101100Y-102711000D03*
X143301100Y-102711000D03*
X142501100Y-102711000D03*
X141701100Y-102711000D03*
D14*
X140208500Y-104203600D03*
X140208500Y-105003600D03*
X140208500Y-105803600D03*
X140208500Y-106603600D03*
X140208500Y-107403600D03*
X140208500Y-108203600D03*
X140208500Y-109003600D03*
X140208500Y-109803600D03*
D15*
X141701100Y-111296200D03*
X142501100Y-111296200D03*
X143301100Y-111296200D03*
X144101100Y-111296200D03*
X144901100Y-111296200D03*
X145701100Y-111296200D03*
X146501100Y-111296200D03*
X147301100Y-111296200D03*
%TD*%
D16*
%TO.C,Q2*%
X163051100Y-88503600D03*
X164951100Y-88503600D03*
X164001100Y-86403600D03*
%TD*%
D17*
%TO.C,R29*%
X141326381Y-76538898D03*
X140675819Y-74968302D03*
%TD*%
D10*
%TO.C,R22*%
X143501100Y-133653600D03*
X143501100Y-135353600D03*
%TD*%
D18*
%TO.C,IC1*%
X162959100Y-112618600D03*
X162959100Y-113888600D03*
X162959100Y-115158600D03*
X162959100Y-116428600D03*
X168383100Y-116428600D03*
X168383100Y-115158600D03*
X168383100Y-113888600D03*
X168383100Y-112618600D03*
D19*
X165671100Y-114523600D03*
%TD*%
D10*
%TO.C,R32*%
X138001100Y-122653600D03*
X138001100Y-124353600D03*
%TD*%
D20*
%TO.C,R9*%
X148351100Y-116003600D03*
X146651100Y-116003600D03*
%TD*%
D10*
%TO.C,C9*%
X153001100Y-107153600D03*
X153001100Y-108853600D03*
%TD*%
D21*
%TO.C,R21*%
X155675819Y-133218302D03*
X156326381Y-134788898D03*
%TD*%
D20*
%TO.C,R6*%
X142651100Y-116003600D03*
X144351100Y-116003600D03*
%TD*%
D22*
%TO.C,Q1*%
X158336100Y-86465600D03*
X157686100Y-86465600D03*
X157036100Y-86465600D03*
X156386100Y-86465600D03*
X156386100Y-92341600D03*
X157036100Y-92341600D03*
X157686100Y-92341600D03*
X158336100Y-92341600D03*
%TD*%
D10*
%TO.C,R5*%
X161001100Y-96853600D03*
X161001100Y-95153600D03*
%TD*%
D23*
%TO.C,RED0*%
X184665487Y-118813842D03*
X185336713Y-117193358D03*
%TD*%
D21*
%TO.C,R7*%
X182675819Y-92718302D03*
X183326381Y-94288898D03*
%TD*%
D20*
%TO.C,R4*%
X156651100Y-100003600D03*
X158351100Y-100003600D03*
%TD*%
D10*
%TO.C,C10*%
X152001100Y-104853600D03*
X152001100Y-103153600D03*
%TD*%
D20*
%TO.C,R8*%
X146651100Y-118003600D03*
X148351100Y-118003600D03*
%TD*%
D24*
%TO.C,R3*%
X183326381Y-116218302D03*
X182675819Y-117788898D03*
%TD*%
D10*
%TO.C,R12*%
X168501100Y-108353600D03*
X168501100Y-106653600D03*
%TD*%
%TO.C,C11*%
X136501100Y-96653600D03*
X136501100Y-98353600D03*
%TD*%
D25*
%TO.C,BLUE0*%
X185336713Y-93313842D03*
X184665487Y-91693358D03*
%TD*%
D24*
%TO.C,R23*%
X132326381Y-129468302D03*
X131675819Y-131038898D03*
%TD*%
D26*
%TO.C,D1*%
X145501100Y-121453600D03*
X145501100Y-125553600D03*
%TD*%
D10*
%TO.C,C8*%
X129501100Y-116853600D03*
X129501100Y-115153600D03*
%TD*%
D27*
%TO.C,Q5*%
X126501100Y-103953600D03*
X126501100Y-102053600D03*
X124401100Y-103003600D03*
%TD*%
%TO.C,Q3*%
X170501100Y-101553600D03*
X170501100Y-103453600D03*
X172601100Y-102503600D03*
%TD*%
D10*
%TO.C,C7*%
X139501100Y-119853600D03*
X139501100Y-118153600D03*
%TD*%
D20*
%TO.C,R33*%
X126351100Y-106003600D03*
X124651100Y-106003600D03*
%TD*%
D28*
%TO.C,U2*%
X150751100Y-116053600D03*
X150751100Y-117003600D03*
X150751100Y-117953600D03*
X153251100Y-117953600D03*
X153251100Y-117003600D03*
X153251100Y-116053600D03*
%TD*%
D29*
%TO.C,R28*%
X131602141Y-81104641D03*
X130400059Y-79902559D03*
%TD*%
D20*
%TO.C,R26*%
X119851100Y-99753600D03*
X118151100Y-99753600D03*
%TD*%
D30*
%TO.C,R19*%
X172965802Y-121178319D03*
X174536398Y-121828881D03*
%TD*%
D31*
%TO.C,R15*%
X164675819Y-80788898D03*
X165326381Y-79218302D03*
%TD*%
D10*
%TO.C,R10*%
X168501100Y-101153600D03*
X168501100Y-102853600D03*
%TD*%
D20*
%TO.C,R18*%
X177401100Y-109753600D03*
X179101100Y-109753600D03*
%TD*%
D32*
%TO.C,R24*%
X124602141Y-121902559D03*
X123400059Y-123104641D03*
%TD*%
D33*
%TO.C,R17*%
X176965802Y-97828881D03*
X178536398Y-97178319D03*
%TD*%
D10*
%TO.C,C5*%
X157501100Y-123353600D03*
X157501100Y-121653600D03*
%TD*%
D34*
%TO.C,L2*%
X150326100Y-123503600D03*
X154626100Y-123503600D03*
%TD*%
D35*
%TO.C,GREEN0*%
X182836713Y-122193358D03*
X182165487Y-123813842D03*
%TD*%
D10*
%TO.C,C1*%
X165501100Y-119153600D03*
X165501100Y-120853600D03*
%TD*%
D36*
%TO.C,Y1*%
X157001100Y-104677600D03*
X157001100Y-114329600D03*
%TD*%
D20*
%TO.C,C3*%
X142651100Y-114003600D03*
X144351100Y-114003600D03*
%TD*%
D16*
%TO.C,Q4*%
X135451100Y-122503600D03*
X133551100Y-122503600D03*
X134501100Y-124603600D03*
%TD*%
D10*
%TO.C,C13*%
X139001100Y-96653600D03*
X139001100Y-98353600D03*
%TD*%
%TO.C,R13*%
X128501100Y-108853600D03*
X128501100Y-107153600D03*
%TD*%
D20*
%TO.C,C4*%
X156651100Y-83503600D03*
X158351100Y-83503600D03*
%TD*%
D37*
%TO.C,R25*%
X119786398Y-111928319D03*
X118215802Y-112578881D03*
%TD*%
D10*
%TO.C,R11*%
X128501100Y-102853600D03*
X128501100Y-101153600D03*
%TD*%
D38*
%TO.C,R27*%
X124286398Y-89078881D03*
X122715802Y-88428319D03*
%TD*%
D10*
%TO.C,R14*%
X153501100Y-76353600D03*
X153501100Y-74653600D03*
%TD*%
D39*
%TO.C,IC2*%
X158311100Y-94813600D03*
X157361100Y-94813600D03*
X156411100Y-94813600D03*
X156411100Y-97313600D03*
X157361100Y-97313600D03*
X158311100Y-97313600D03*
%TD*%
D40*
%TO.C,U$2*%
X144111100Y-98003600D03*
X146651100Y-98003600D03*
X147921100Y-98003600D03*
X145381100Y-98003600D03*
X153001100Y-98003600D03*
X151731100Y-98003600D03*
X150461100Y-98003600D03*
X149191100Y-98003600D03*
%TD*%
D41*
%TO.C,R16*%
X172150059Y-88104641D03*
X173352141Y-86902559D03*
%TD*%
D42*
%TO.C,U$1*%
X132189700Y-119602400D03*
X134501100Y-119602400D03*
X136812500Y-119602400D03*
D43*
X134501100Y-113404600D03*
%TD*%
D10*
%TO.C,C12*%
X141501100Y-96653600D03*
X141501100Y-98353600D03*
%TD*%
D31*
%TO.C,R2*%
X180425819Y-123038898D03*
X181076381Y-121468302D03*
%TD*%
D10*
%TO.C,R30*%
X163001100Y-92353600D03*
X163001100Y-90653600D03*
%TD*%
%TO.C,C6*%
X142501100Y-121153600D03*
X142501100Y-122853600D03*
%TD*%
D20*
%TO.C,R31*%
X170651100Y-106003600D03*
X172351100Y-106003600D03*
%TD*%
M02*
