G04 #@! TF.GenerationSoftware,KiCad,Pcbnew,(6.0.4-0)*
G04 #@! TF.CreationDate,2022-11-18T23:15:20+01:00*
G04 #@! TF.ProjectId,iO_Atletehe_rev1,694f5f41-746c-4657-9465-68655f726576,rev?*
G04 #@! TF.SameCoordinates,Original*
G04 #@! TF.FileFunction,Soldermask,Bot*
G04 #@! TF.FilePolarity,Negative*
%FSLAX46Y46*%
G04 Gerber Fmt 4.6, Leading zero omitted, Abs format (unit mm)*
G04 Created by KiCad (PCBNEW (6.0.4-0)) date 2022-11-18 23:15:20*
%MOMM*%
%LPD*%
G01*
G04 APERTURE LIST*
G04 Aperture macros list*
%AMRoundRect*
0 Rectangle with rounded corners*
0 $1 Rounding radius*
0 $2 $3 $4 $5 $6 $7 $8 $9 X,Y pos of 4 corners*
0 Add a 4 corners polygon primitive as box body*
4,1,4,$2,$3,$4,$5,$6,$7,$8,$9,$2,$3,0*
0 Add four circle primitives for the rounded corners*
1,1,$1+$1,$2,$3*
1,1,$1+$1,$4,$5*
1,1,$1+$1,$6,$7*
1,1,$1+$1,$8,$9*
0 Add four rect primitives between the rounded corners*
20,1,$1+$1,$2,$3,$4,$5,0*
20,1,$1+$1,$4,$5,$6,$7,0*
20,1,$1+$1,$6,$7,$8,$9,0*
20,1,$1+$1,$8,$9,$2,$3,0*%
G04 Aperture macros list end*
%ADD10C,1.308000*%
%ADD11C,2.082800*%
%ADD12C,2.499990*%
%ADD13C,2.500009*%
%ADD14C,2.500000*%
%ADD15C,1.000000*%
%ADD16C,1.753200*%
%ADD17RoundRect,0.101600X0.654000X-0.654000X0.654000X0.654000X-0.654000X0.654000X-0.654000X-0.654000X0*%
%ADD18RoundRect,0.101600X-0.200000X-0.725000X0.200000X-0.725000X0.200000X0.725000X-0.200000X0.725000X0*%
%ADD19C,0.850000*%
%ADD20C,2.743200*%
%ADD21C,1.503200*%
%ADD22C,2.078200*%
G04 APERTURE END LIST*
G36*
X137102569Y-90128267D02*
G01*
X137294528Y-90189555D01*
X137470841Y-90287115D01*
X137619958Y-90413159D01*
X137578972Y-90461648D01*
X137628479Y-90421898D01*
X137747448Y-90570066D01*
X137838107Y-90744151D01*
X137893050Y-90932580D01*
X137910167Y-91128108D01*
X137888799Y-91323218D01*
X137829768Y-91510406D01*
X137735344Y-91682477D01*
X137613178Y-91828022D01*
X137564546Y-91787201D01*
X137605478Y-91835741D01*
X137459471Y-91958868D01*
X137286772Y-92054169D01*
X137098800Y-92113945D01*
X136902779Y-92135903D01*
X136706239Y-92119196D01*
X136513694Y-92063588D01*
X136189419Y-91853131D01*
X136057670Y-91696471D01*
X135960566Y-91519929D01*
X135899774Y-91327832D01*
X135877632Y-91127567D01*
X135894989Y-90926830D01*
X135952064Y-90730298D01*
X136168058Y-90398594D01*
X136328811Y-90270529D01*
X136507883Y-90178132D01*
X136701541Y-90122444D01*
X136902342Y-90105607D01*
X137102569Y-90128267D01*
G37*
G36*
X131714416Y-95516421D02*
G01*
X131906374Y-95577709D01*
X132082688Y-95675269D01*
X132231804Y-95801313D01*
X132190818Y-95849801D01*
X132240325Y-95810051D01*
X132359294Y-95958220D01*
X132449953Y-96132305D01*
X132504896Y-96320734D01*
X132522013Y-96516262D01*
X132500645Y-96711372D01*
X132441614Y-96898560D01*
X132347190Y-97070630D01*
X132225025Y-97216176D01*
X132176396Y-97175359D01*
X132217325Y-97223894D01*
X132071318Y-97347021D01*
X131898619Y-97442322D01*
X131710647Y-97502098D01*
X131514626Y-97524055D01*
X131318086Y-97507349D01*
X131125541Y-97451741D01*
X130801266Y-97241284D01*
X130669516Y-97084625D01*
X130572412Y-96908083D01*
X130511620Y-96715985D01*
X130489478Y-96515721D01*
X130506836Y-96314984D01*
X130563911Y-96118452D01*
X130779905Y-95786748D01*
X130940657Y-95658682D01*
X131119730Y-95566285D01*
X131313387Y-95510597D01*
X131514188Y-95493760D01*
X131714416Y-95516421D01*
G37*
G36*
X140694672Y-86536165D02*
G01*
X140886630Y-86597453D01*
X141062944Y-86695013D01*
X141212060Y-86821057D01*
X141171074Y-86869545D01*
X141220581Y-86829795D01*
X141339550Y-86977964D01*
X141430209Y-87152048D01*
X141485152Y-87340478D01*
X141502269Y-87536006D01*
X141480901Y-87731116D01*
X141421870Y-87918304D01*
X141327446Y-88090374D01*
X141205281Y-88235919D01*
X141156648Y-88195099D01*
X141197580Y-88243638D01*
X141051573Y-88366766D01*
X140878875Y-88462066D01*
X140690902Y-88521843D01*
X140494881Y-88543800D01*
X140298341Y-88527093D01*
X140105797Y-88471486D01*
X139781522Y-88261028D01*
X139649772Y-88104369D01*
X139552668Y-87927827D01*
X139491876Y-87735729D01*
X139469735Y-87535464D01*
X139487092Y-87334727D01*
X139544167Y-87138196D01*
X139760161Y-86806492D01*
X139920913Y-86678426D01*
X140099986Y-86586029D01*
X140293643Y-86530341D01*
X140494444Y-86513504D01*
X140694672Y-86536165D01*
G37*
G36*
X133510467Y-93720370D02*
G01*
X133702425Y-93781657D01*
X133878739Y-93879218D01*
X134027856Y-94005262D01*
X133986870Y-94053750D01*
X134036376Y-94014000D01*
X134155346Y-94162169D01*
X134246004Y-94336253D01*
X134300947Y-94524682D01*
X134318064Y-94720211D01*
X134296696Y-94915321D01*
X134237665Y-95102509D01*
X134143241Y-95274579D01*
X134021076Y-95420124D01*
X133972443Y-95379304D01*
X134013375Y-95427843D01*
X133867368Y-95550971D01*
X133694670Y-95646271D01*
X133506697Y-95706048D01*
X133310676Y-95728005D01*
X133114136Y-95711298D01*
X132921592Y-95655691D01*
X132597317Y-95445233D01*
X132465567Y-95288573D01*
X132368463Y-95112032D01*
X132307671Y-94919934D01*
X132285530Y-94719669D01*
X132302887Y-94518932D01*
X132359962Y-94322400D01*
X132575956Y-93990697D01*
X132736708Y-93862631D01*
X132915781Y-93770234D01*
X133109438Y-93714546D01*
X133310239Y-93697709D01*
X133510467Y-93720370D01*
G37*
G36*
X135306518Y-91924319D02*
G01*
X135498476Y-91985606D01*
X135674790Y-92083167D01*
X135823907Y-92209210D01*
X135782921Y-92257699D01*
X135832427Y-92217949D01*
X135951397Y-92366117D01*
X136042056Y-92540202D01*
X136096999Y-92728631D01*
X136114115Y-92924160D01*
X136092747Y-93119270D01*
X136033717Y-93306458D01*
X135939292Y-93478528D01*
X135817127Y-93624073D01*
X135768494Y-93583253D01*
X135809427Y-93631792D01*
X135663420Y-93754920D01*
X135490721Y-93850220D01*
X135302749Y-93909997D01*
X135106727Y-93931954D01*
X134910188Y-93915247D01*
X134717643Y-93859639D01*
X134393368Y-93649182D01*
X134261619Y-93492522D01*
X134164515Y-93315980D01*
X134103722Y-93123883D01*
X134081581Y-92923618D01*
X134098938Y-92722881D01*
X134156013Y-92526349D01*
X134372007Y-92194645D01*
X134532760Y-92066580D01*
X134711832Y-91974183D01*
X134905490Y-91918495D01*
X135106290Y-91901658D01*
X135306518Y-91924319D01*
G37*
G36*
X138898621Y-88332216D02*
G01*
X139090579Y-88393504D01*
X139266892Y-88491064D01*
X139416009Y-88617108D01*
X139375023Y-88665596D01*
X139424530Y-88625846D01*
X139543499Y-88774015D01*
X139634158Y-88948100D01*
X139689101Y-89136529D01*
X139706218Y-89332057D01*
X139684850Y-89527167D01*
X139625819Y-89714355D01*
X139531395Y-89886425D01*
X139409230Y-90031971D01*
X139360597Y-89991150D01*
X139401529Y-90039689D01*
X139255522Y-90162817D01*
X139082823Y-90258118D01*
X138894851Y-90317894D01*
X138698830Y-90339851D01*
X138502290Y-90323144D01*
X138309746Y-90267537D01*
X137985471Y-90057079D01*
X137853721Y-89900420D01*
X137756617Y-89723878D01*
X137695825Y-89531780D01*
X137673683Y-89331516D01*
X137691041Y-89130779D01*
X137748115Y-88934247D01*
X137964110Y-88602543D01*
X138124862Y-88474477D01*
X138303935Y-88382081D01*
X138497592Y-88326392D01*
X138698393Y-88309555D01*
X138898621Y-88332216D01*
G37*
G36*
X145817100Y-143603600D02*
G01*
X143817100Y-143603600D01*
X143817100Y-141903600D01*
X145817100Y-141903600D01*
X145817100Y-143603600D01*
G37*
G36*
X153185100Y-143603600D02*
G01*
X151185100Y-143603600D01*
X151185100Y-141903600D01*
X153185100Y-141903600D01*
X153185100Y-143603600D01*
G37*
G36*
X149851100Y-143603600D02*
G01*
X147151100Y-143603600D01*
X147151100Y-141903600D01*
X149851100Y-141903600D01*
X149851100Y-143603600D01*
G37*
D10*
X166979600Y-94030800D03*
X169519600Y-94030800D03*
X166979600Y-96570800D03*
X169519600Y-96570800D03*
X169519600Y-91490800D03*
X166979600Y-91490800D03*
D11*
X177231100Y-105003600D03*
X179771100Y-105003600D03*
X168853074Y-125355574D03*
X170649126Y-127151626D03*
X136987108Y-131330273D03*
X136015092Y-133676927D03*
X128149126Y-125355574D03*
X126353074Y-127151626D03*
X128149126Y-84651626D03*
X126353074Y-82855574D03*
X174827773Y-116517592D03*
X177174427Y-117489608D03*
X122174427Y-116517592D03*
X119827773Y-117489608D03*
D12*
X121984596Y-131520104D03*
D13*
X175017603Y-131520104D03*
D11*
X136987108Y-78676927D03*
X136015092Y-76330273D03*
X119771100Y-105003600D03*
X117231100Y-105003600D03*
X122174427Y-93489608D03*
X119827773Y-92517592D03*
D14*
X165901100Y-105003600D03*
D15*
X166451100Y-109653600D03*
D14*
X162101100Y-105003600D03*
D16*
X162731100Y-107753600D03*
X165271100Y-107753600D03*
X165271100Y-102253600D03*
X162731100Y-102253600D03*
D11*
X160265092Y-78676927D03*
X161237108Y-76330273D03*
X148501100Y-133733600D03*
X148501100Y-136273600D03*
X168853074Y-84651626D03*
X170649126Y-82855574D03*
D12*
X121984596Y-78487097D03*
D11*
X160015092Y-131330273D03*
X160987108Y-133676927D03*
D17*
X153626100Y-87378600D03*
D13*
X175017603Y-78487097D03*
D15*
X135451100Y-109653600D03*
D14*
X131101100Y-105003600D03*
X134901100Y-105003600D03*
D16*
X131731100Y-107753600D03*
X134271100Y-107753600D03*
X134271100Y-102253600D03*
X131731100Y-102253600D03*
D11*
X174827773Y-93489608D03*
X177174427Y-92517592D03*
X148501100Y-76273600D03*
X148501100Y-73733600D03*
D18*
X149801100Y-140028600D03*
X147851100Y-140028600D03*
X147201100Y-140028600D03*
X149151100Y-140028600D03*
X148501100Y-140028600D03*
D19*
X150401100Y-140553600D03*
X146601100Y-140553600D03*
D20*
X153471100Y-68403600D03*
X143471100Y-68403600D03*
D21*
X185501100Y-103003600D03*
X185501100Y-105003600D03*
X185501100Y-107003600D03*
D22*
X185501100Y-100903600D03*
X185501100Y-109103600D03*
M02*
