M48
; DRILL file {KiCad (6.0.4-0)} date 2022 November 18, Friday 23:15:27
; FORMAT={-:-/ absolute / metric / decimal}
; #@! TF.CreationDate,2022-11-18T23:15:27+01:00
; #@! TF.GenerationSoftware,Kicad,Pcbnew,(6.0.4-0)
; #@! TF.FileFunction,Plated,1,2,PTH
FMAT,2
METRIC
; #@! TA.AperFunction,Plated,PTH,ViaDrill
T1C0.350
; #@! TA.AperFunction,Plated,PTH,ComponentDrill
T2C0.800
; #@! TA.AperFunction,Plated,PTH,ComponentDrill
T3C0.813
; #@! TA.AperFunction,Plated,PTH,ComponentDrill
T4C1.000
; #@! TA.AperFunction,Plated,PTH,ComponentDrill
T5C1.016
; #@! TA.AperFunction,Plated,PTH,ComponentDrill
T6C1.250
; #@! TA.AperFunction,Plated,PTH,ComponentDrill
T7C1.397
%
G90
G05
T1
X112.501Y-97.004
X113.001Y-115.004
X116.501Y-87.004
X117.001Y-124.004
X127.001Y-74.504
X129.001Y-136.504
X132.326Y-99.309
X132.501Y-80.004
X137.501Y-69.504
X138.501Y-140.504
X139.083Y-94.597
X139.794Y-95.22
X140.149Y-101.709
X140.501Y-123.004
X140.505Y-95.842
X140.505Y-119.045
X140.772Y-93.797
X141.483Y-113.8
X141.661Y-94.508
X142.001Y-107.004
X142.001Y-108.004
X142.001Y-109.004
X142.105Y-92.641
X142.283Y-95.22
X142.283Y-101.354
X142.501Y-112.904
X142.994Y-108.821
X143.261Y-101.531
X143.794Y-93.353
X146.817Y-96.553
X147.001Y-107.504
X147.001Y-112.504
X147.001Y-113.504
X147.261Y-99.398
X147.439Y-95.842
X147.884Y-100.82
X148.501Y-112.504
X148.506Y-101.531
X150.001Y-109.004
X150.001Y-110.004
X150.729Y-113.177
X151.001Y-131.504
X151.501Y-129.504
X152.24Y-111.844
X153.01Y-95.301
X153.06Y-93.828
X153.264Y-100.381
X153.573Y-113.889
X154.001Y-128.004
X154.001Y-130.004
X155.44Y-127.935
X157.501Y-118.004
X160.001Y-101.004
X160.001Y-109.004
X160.001Y-123.004
X162.501Y-93.504
X163.001Y-71.004
X163.001Y-95.004
X163.001Y-138.504
X165.252Y-85.649
X166.573Y-87.071
X166.731Y-117.089
X166.82Y-112.288
X167.001Y-118.004
X168.656Y-98.755
X169.001Y-74.504
X169.486Y-105.799
X169.501Y-135.504
X169.753Y-114.155
X171.001Y-113.004
X175.501Y-110.504
X178.001Y-83.004
X182.001Y-88.504
X183.808Y-120.399
X185.001Y-113.004
T2
X153.626Y-87.379
X166.98Y-91.491
X166.98Y-94.031
X166.98Y-96.571
X169.52Y-91.491
X169.52Y-94.031
X169.52Y-96.571
X185.501Y-103.004
X185.501Y-105.004
X185.501Y-107.004
T3
X117.231Y-105.004
X119.771Y-105.004
X119.828Y-92.518
X119.828Y-117.49
X122.174Y-93.49
X122.174Y-116.518
X126.353Y-82.856
X126.353Y-127.152
X128.149Y-84.652
X128.149Y-125.356
X136.015Y-76.33
X136.015Y-133.677
X136.987Y-78.677
X136.987Y-131.33
X148.501Y-73.734
X148.501Y-76.274
X148.501Y-133.734
X148.501Y-136.274
X160.015Y-131.33
X160.265Y-78.677
X160.987Y-133.677
X161.237Y-76.33
X168.853Y-84.652
X168.853Y-125.356
X170.649Y-82.856
X170.649Y-127.152
X174.828Y-93.49
X174.828Y-116.518
X177.174Y-92.518
X177.174Y-117.49
X177.231Y-105.004
X179.771Y-105.004
T4
X131.731Y-102.254
X131.731Y-107.754
X134.271Y-102.254
X134.271Y-107.754
X162.731Y-102.254
X162.731Y-107.754
X165.271Y-102.254
X165.271Y-107.754
T5
X131.501Y-96.504
X133.297Y-94.708
X135.093Y-92.911
X136.889Y-91.115
X138.685Y-89.319
X140.481Y-87.523
T6
X185.501Y-100.904
X185.501Y-109.104
T7
X143.471Y-68.404
X153.471Y-68.404
T0
M30
