G04 #@! TF.GenerationSoftware,KiCad,Pcbnew,(6.0.4-0)*
G04 #@! TF.CreationDate,2022-11-18T23:15:20+01:00*
G04 #@! TF.ProjectId,iO_Atletehe_rev1,694f5f41-746c-4657-9465-68655f726576,rev?*
G04 #@! TF.SameCoordinates,Original*
G04 #@! TF.FileFunction,Soldermask,Top*
G04 #@! TF.FilePolarity,Negative*
%FSLAX46Y46*%
G04 Gerber Fmt 4.6, Leading zero omitted, Abs format (unit mm)*
G04 Created by KiCad (PCBNEW (6.0.4-0)) date 2022-11-18 23:15:20*
%MOMM*%
%LPD*%
G01*
G04 APERTURE LIST*
G04 Aperture macros list*
%AMRoundRect*
0 Rectangle with rounded corners*
0 $1 Rounding radius*
0 $2 $3 $4 $5 $6 $7 $8 $9 X,Y pos of 4 corners*
0 Add a 4 corners polygon primitive as box body*
4,1,4,$2,$3,$4,$5,$6,$7,$8,$9,$2,$3,0*
0 Add four circle primitives for the rounded corners*
1,1,$1+$1,$2,$3*
1,1,$1+$1,$4,$5*
1,1,$1+$1,$6,$7*
1,1,$1+$1,$8,$9*
0 Add four rect primitives between the rounded corners*
20,1,$1+$1,$2,$3,$4,$5,0*
20,1,$1+$1,$4,$5,$6,$7,0*
20,1,$1+$1,$6,$7,$8,$9,0*
20,1,$1+$1,$8,$9,$2,$3,0*%
G04 Aperture macros list end*
%ADD10C,1.308000*%
%ADD11RoundRect,0.101600X-0.500000X0.550000X-0.500000X-0.550000X0.500000X-0.550000X0.500000X0.550000X0*%
%ADD12RoundRect,0.101600X0.500000X-0.550000X0.500000X0.550000X-0.500000X0.550000X-0.500000X-0.550000X0*%
%ADD13RoundRect,0.101600X-0.742462X0.035355X0.035355X-0.742462X0.742462X-0.035355X-0.035355X0.742462X0*%
%ADD14RoundRect,0.101600X0.635000X0.279400X-0.635000X0.279400X-0.635000X-0.279400X0.635000X-0.279400X0*%
%ADD15RoundRect,0.101600X0.279400X0.635000X-0.279400X0.635000X-0.279400X-0.635000X0.279400X-0.635000X0*%
%ADD16RoundRect,0.101600X-0.400000X-0.450000X0.400000X-0.450000X0.400000X0.450000X-0.400000X0.450000X0*%
%ADD17RoundRect,0.101600X0.672416X-0.316792X0.251464X0.699475X-0.672416X0.316792X-0.251464X-0.699475X0*%
%ADD18RoundRect,0.101600X-0.762500X-0.350000X0.762500X-0.350000X0.762500X0.350000X-0.762500X0.350000X0*%
%ADD19RoundRect,0.101600X1.256500X-1.701000X1.256500X1.701000X-1.256500X1.701000X-1.256500X-1.701000X0*%
%ADD20C,2.082800*%
%ADD21RoundRect,0.101600X0.550000X0.500000X-0.550000X0.500000X-0.550000X-0.500000X0.550000X-0.500000X0*%
%ADD22RoundRect,0.101600X-0.672416X0.316792X-0.251464X-0.699475X0.672416X-0.316792X0.251464X0.699475X0*%
%ADD23RoundRect,0.101600X-0.550000X-0.500000X0.550000X-0.500000X0.550000X0.500000X-0.550000X0.500000X0*%
%ADD24RoundRect,0.101600X-0.225000X0.737500X-0.225000X-0.737500X0.225000X-0.737500X0.225000X0.737500X0*%
%ADD25RoundRect,0.251600X-0.457297X-0.189419X0.189419X-0.457297X0.457297X0.189419X-0.189419X0.457297X0*%
%ADD26RoundRect,0.101600X-0.251464X0.699475X-0.672416X-0.316792X0.251464X-0.699475X0.672416X0.316792X0*%
%ADD27C,2.499990*%
%ADD28RoundRect,0.251600X-0.189419X-0.457297X0.457297X-0.189419X0.189419X0.457297X-0.457297X0.189419X0*%
%ADD29RoundRect,0.101600X-0.775000X1.100000X-0.775000X-1.100000X0.775000X-1.100000X0.775000X1.100000X0*%
%ADD30C,2.500009*%
%ADD31RoundRect,0.101600X0.450000X-0.400000X0.450000X0.400000X-0.450000X0.400000X-0.450000X-0.400000X0*%
%ADD32RoundRect,0.101600X-0.450000X0.400000X-0.450000X-0.400000X0.450000X-0.400000X0.450000X0.400000X0*%
%ADD33C,2.500000*%
%ADD34C,1.000000*%
%ADD35C,1.753200*%
%ADD36RoundRect,0.101600X-0.600000X-0.300000X0.600000X-0.300000X0.600000X0.300000X-0.600000X0.300000X0*%
%ADD37RoundRect,0.101600X0.742462X-0.035355X-0.035355X0.742462X-0.742462X0.035355X0.035355X-0.742462X0*%
%ADD38RoundRect,0.101600X-0.699475X-0.251464X0.316792X-0.672416X0.699475X0.251464X-0.316792X0.672416X0*%
%ADD39RoundRect,0.101600X0.251464X-0.699475X0.672416X0.316792X-0.251464X0.699475X-0.672416X-0.316792X0*%
%ADD40RoundRect,0.101600X0.035355X0.742462X-0.742462X-0.035355X-0.035355X-0.742462X0.742462X0.035355X0*%
%ADD41RoundRect,0.101600X-0.316792X-0.672416X0.699475X-0.251464X0.316792X0.672416X-0.699475X0.251464X0*%
%ADD42RoundRect,0.101600X1.250000X-3.000000X1.250000X3.000000X-1.250000X3.000000X-1.250000X-3.000000X0*%
%ADD43RoundRect,0.251600X0.457297X0.189419X-0.189419X0.457297X-0.457297X-0.189419X0.189419X-0.457297X0*%
%ADD44RoundRect,0.101600X-0.965200X2.667000X-0.965200X-2.667000X0.965200X-2.667000X0.965200X2.667000X0*%
%ADD45RoundRect,0.101600X0.400000X0.450000X-0.400000X0.450000X-0.400000X-0.450000X0.400000X-0.450000X0*%
%ADD46RoundRect,0.101600X0.316792X0.672416X-0.699475X0.251464X-0.316792X-0.672416X0.699475X-0.251464X0*%
%ADD47RoundRect,0.101600X0.699475X0.251464X-0.316792X0.672416X-0.699475X-0.251464X0.316792X-0.672416X0*%
%ADD48RoundRect,0.101600X-0.300000X0.600000X-0.300000X-0.600000X0.300000X-0.600000X0.300000X0.600000X0*%
%ADD49RoundRect,0.101600X0.406400X-0.838200X0.406400X0.838200X-0.406400X0.838200X-0.406400X-0.838200X0*%
%ADD50RoundRect,0.101600X0.654000X-0.654000X0.654000X0.654000X-0.654000X0.654000X-0.654000X-0.654000X0*%
%ADD51RoundRect,0.101600X-0.035355X-0.742462X0.742462X0.035355X0.035355X0.742462X-0.742462X-0.035355X0*%
%ADD52RoundRect,0.101600X-0.609600X-1.117600X0.609600X-1.117600X0.609600X1.117600X-0.609600X1.117600X0*%
%ADD53RoundRect,0.101600X-1.800000X-1.100000X1.800000X-1.100000X1.800000X1.100000X-1.800000X1.100000X0*%
%ADD54C,0.850000*%
%ADD55C,2.743200*%
%ADD56C,1.503200*%
%ADD57C,2.078200*%
G04 APERTURE END LIST*
G36*
X140571890Y-87024476D02*
G01*
X140830749Y-87161932D01*
X140800969Y-87218013D01*
X140852654Y-87181126D01*
X140938136Y-87300903D01*
X140985443Y-87450826D01*
X140984097Y-87608031D01*
X140934232Y-87757124D01*
X140846713Y-87875420D01*
X140795669Y-87837655D01*
X140834185Y-87888135D01*
X140718117Y-87976696D01*
X140570871Y-88028380D01*
X140409672Y-88032147D01*
X140140210Y-87902664D01*
X140038140Y-87769318D01*
X139983977Y-87615795D01*
X139979778Y-87447864D01*
X140115187Y-87164834D01*
X140252238Y-87068759D01*
X140405956Y-87021670D01*
X140571890Y-87024476D01*
G37*
G36*
X131591634Y-96004732D02*
G01*
X131850493Y-96142188D01*
X131820713Y-96198269D01*
X131872398Y-96161382D01*
X131957880Y-96281159D01*
X132005187Y-96431082D01*
X132003841Y-96588287D01*
X131953976Y-96737380D01*
X131866457Y-96855676D01*
X131815415Y-96817913D01*
X131853929Y-96868391D01*
X131737862Y-96956952D01*
X131590615Y-97008635D01*
X131429418Y-97012403D01*
X131159954Y-96882920D01*
X131057884Y-96749574D01*
X131003721Y-96596051D01*
X130999522Y-96428121D01*
X131134931Y-96145090D01*
X131271982Y-96049015D01*
X131425700Y-96001926D01*
X131591634Y-96004732D01*
G37*
G36*
X133387685Y-94208681D02*
G01*
X133646544Y-94346137D01*
X133616764Y-94402218D01*
X133668449Y-94365331D01*
X133753932Y-94485108D01*
X133801238Y-94635031D01*
X133799892Y-94792235D01*
X133750027Y-94941329D01*
X133662508Y-95059625D01*
X133611464Y-95021860D01*
X133649980Y-95072340D01*
X133533912Y-95160901D01*
X133386666Y-95212585D01*
X133225468Y-95216352D01*
X132956005Y-95086869D01*
X132853935Y-94953523D01*
X132799772Y-94800000D01*
X132795574Y-94632069D01*
X132930982Y-94349039D01*
X133068033Y-94252964D01*
X133221751Y-94205875D01*
X133387685Y-94208681D01*
G37*
G36*
X135183736Y-92412629D02*
G01*
X135442595Y-92550085D01*
X135412815Y-92606167D01*
X135464501Y-92569280D01*
X135549983Y-92689057D01*
X135597289Y-92838980D01*
X135595943Y-92996184D01*
X135546078Y-93145278D01*
X135458560Y-93263574D01*
X135407515Y-93225809D01*
X135446031Y-93276289D01*
X135329964Y-93364850D01*
X135182717Y-93416534D01*
X135021519Y-93420300D01*
X134752056Y-93290818D01*
X134649987Y-93157472D01*
X134595824Y-93003949D01*
X134591625Y-92836018D01*
X134727034Y-92552988D01*
X134864084Y-92456913D01*
X135017802Y-92409824D01*
X135183736Y-92412629D01*
G37*
G36*
X138775839Y-88820527D02*
G01*
X139034698Y-88957983D01*
X139004918Y-89014064D01*
X139056603Y-88977177D01*
X139142085Y-89096954D01*
X139189391Y-89246877D01*
X139188046Y-89404082D01*
X139138181Y-89553175D01*
X139050662Y-89671471D01*
X138999617Y-89633706D01*
X139038134Y-89684187D01*
X138922066Y-89772747D01*
X138774820Y-89824431D01*
X138613621Y-89828198D01*
X138344158Y-89698715D01*
X138242089Y-89565369D01*
X138187926Y-89411846D01*
X138183727Y-89243916D01*
X138319136Y-88960886D01*
X138456187Y-88864810D01*
X138609905Y-88817721D01*
X138775839Y-88820527D01*
G37*
G36*
X136979787Y-90616578D02*
G01*
X137238646Y-90754034D01*
X137208867Y-90810115D01*
X137260552Y-90773229D01*
X137346034Y-90893005D01*
X137393340Y-91042928D01*
X137391995Y-91200133D01*
X137342129Y-91349226D01*
X137254611Y-91467523D01*
X137203566Y-91429757D01*
X137242082Y-91480238D01*
X137126015Y-91568799D01*
X136978768Y-91620482D01*
X136817570Y-91624249D01*
X136548107Y-91494767D01*
X136446038Y-91361420D01*
X136391875Y-91207898D01*
X136387676Y-91039967D01*
X136523085Y-90756937D01*
X136660136Y-90660862D01*
X136813853Y-90613772D01*
X136979787Y-90616578D01*
G37*
G36*
X139766910Y-112496117D02*
G01*
X140024643Y-112565177D01*
X140266469Y-112677942D01*
X140485040Y-112830987D01*
X140673713Y-113019660D01*
X140826758Y-113238231D01*
X140939523Y-113480057D01*
X141008583Y-113737790D01*
X141031838Y-114003600D01*
X141008583Y-114269410D01*
X140939523Y-114527143D01*
X140826758Y-114768969D01*
X140673713Y-114987540D01*
X140485040Y-115176213D01*
X140266469Y-115329258D01*
X140024643Y-115442023D01*
X139766910Y-115511083D01*
X139501100Y-115534338D01*
X139235290Y-115511083D01*
X138977557Y-115442023D01*
X138735731Y-115329258D01*
X138517160Y-115176213D01*
X138328487Y-114987540D01*
X138175442Y-114768969D01*
X138060780Y-114523076D01*
X137969971Y-114008070D01*
X137993617Y-113737790D01*
X138062677Y-113480057D01*
X138175442Y-113238231D01*
X138328487Y-113019660D01*
X138517160Y-112830987D01*
X138735731Y-112677942D01*
X138977557Y-112565177D01*
X139235290Y-112496117D01*
X139501100Y-112472862D01*
X139766910Y-112496117D01*
G37*
D10*
X166979600Y-94030800D03*
X169519600Y-94030800D03*
X166979600Y-96570800D03*
X169519600Y-96570800D03*
X169519600Y-91490800D03*
X166979600Y-91490800D03*
D11*
X171805600Y-97194000D03*
X171805600Y-98894000D03*
D12*
X139081100Y-101843600D03*
X139081100Y-100143600D03*
D13*
X165400059Y-128652559D03*
X166602141Y-129854641D03*
D11*
X163001100Y-119153600D03*
X163001100Y-120853600D03*
D14*
X148793700Y-109803600D03*
X148793700Y-109003600D03*
X148793700Y-108203600D03*
X148793700Y-107403600D03*
X148793700Y-106603600D03*
X148793700Y-105803600D03*
X148793700Y-105003600D03*
X148793700Y-104203600D03*
D15*
X147301100Y-102711000D03*
X146501100Y-102711000D03*
X145701100Y-102711000D03*
X144901100Y-102711000D03*
X144101100Y-102711000D03*
X143301100Y-102711000D03*
X142501100Y-102711000D03*
X141701100Y-102711000D03*
D14*
X140208500Y-104203600D03*
X140208500Y-105003600D03*
X140208500Y-105803600D03*
X140208500Y-106603600D03*
X140208500Y-107403600D03*
X140208500Y-108203600D03*
X140208500Y-109003600D03*
X140208500Y-109803600D03*
D15*
X141701100Y-111296200D03*
X142501100Y-111296200D03*
X143301100Y-111296200D03*
X144101100Y-111296200D03*
X144901100Y-111296200D03*
X145701100Y-111296200D03*
X146501100Y-111296200D03*
X147301100Y-111296200D03*
D16*
X163051100Y-88503600D03*
X164951100Y-88503600D03*
X164001100Y-86403600D03*
D17*
X141326381Y-76538898D03*
X140675819Y-74968302D03*
D11*
X143501100Y-133653600D03*
X143501100Y-135353600D03*
D18*
X162959100Y-112618600D03*
X162959100Y-113888600D03*
X162959100Y-115158600D03*
X162959100Y-116428600D03*
X168383100Y-116428600D03*
X168383100Y-115158600D03*
X168383100Y-113888600D03*
X168383100Y-112618600D03*
D19*
X165671100Y-114523600D03*
D20*
X177231100Y-105003600D03*
X179771100Y-105003600D03*
X168853074Y-125355574D03*
X170649126Y-127151626D03*
X136987108Y-131330273D03*
X136015092Y-133676927D03*
D11*
X138001100Y-122653600D03*
X138001100Y-124353600D03*
D21*
X148351100Y-116003600D03*
X146651100Y-116003600D03*
D11*
X153001100Y-107153600D03*
X153001100Y-108853600D03*
D22*
X155675819Y-133218302D03*
X156326381Y-134788898D03*
D20*
X128149126Y-125355574D03*
X126353074Y-127151626D03*
D23*
X142651100Y-116003600D03*
X144351100Y-116003600D03*
D24*
X158336100Y-86465600D03*
X157686100Y-86465600D03*
X157036100Y-86465600D03*
X156386100Y-86465600D03*
X156386100Y-92341600D03*
X157036100Y-92341600D03*
X157686100Y-92341600D03*
X158336100Y-92341600D03*
D12*
X161001100Y-96853600D03*
X161001100Y-95153600D03*
D25*
X184665487Y-118813842D03*
X185336713Y-117193358D03*
D22*
X182675819Y-92718302D03*
X183326381Y-94288898D03*
D20*
X128149126Y-84651626D03*
X126353074Y-82855574D03*
D23*
X156651100Y-100003600D03*
X158351100Y-100003600D03*
D12*
X152001100Y-104853600D03*
X152001100Y-103153600D03*
D23*
X146651100Y-118003600D03*
X148351100Y-118003600D03*
D20*
X174827773Y-116517592D03*
X177174427Y-117489608D03*
D26*
X183326381Y-116218302D03*
X182675819Y-117788898D03*
D20*
X122174427Y-116517592D03*
X119827773Y-117489608D03*
D12*
X168501100Y-108353600D03*
X168501100Y-106653600D03*
D27*
X121984596Y-131520104D03*
D11*
X136501100Y-96653600D03*
X136501100Y-98353600D03*
D28*
X185336713Y-93313842D03*
X184665487Y-91693358D03*
D26*
X132326381Y-129468302D03*
X131675819Y-131038898D03*
D29*
X145501100Y-121453600D03*
X145501100Y-125553600D03*
D30*
X175017603Y-131520104D03*
D20*
X136987108Y-78676927D03*
X136015092Y-76330273D03*
X119771100Y-105003600D03*
X117231100Y-105003600D03*
D12*
X129501100Y-116853600D03*
X129501100Y-115153600D03*
D31*
X126501100Y-103953600D03*
X126501100Y-102053600D03*
X124401100Y-103003600D03*
D32*
X170501100Y-101553600D03*
X170501100Y-103453600D03*
X172601100Y-102503600D03*
D12*
X139501100Y-119853600D03*
X139501100Y-118153600D03*
D21*
X126351100Y-106003600D03*
X124651100Y-106003600D03*
D20*
X122174427Y-93489608D03*
X119827773Y-92517592D03*
D33*
X165901100Y-105003600D03*
D34*
X166451100Y-109653600D03*
D33*
X162101100Y-105003600D03*
D35*
X162731100Y-107753600D03*
X165271100Y-107753600D03*
X165271100Y-102253600D03*
X162731100Y-102253600D03*
D36*
X150751100Y-116053600D03*
X150751100Y-117003600D03*
X150751100Y-117953600D03*
X153251100Y-117953600D03*
X153251100Y-117003600D03*
X153251100Y-116053600D03*
D20*
X160265092Y-78676927D03*
X161237108Y-76330273D03*
D37*
X131602141Y-81104641D03*
X130400059Y-79902559D03*
D21*
X119851100Y-99753600D03*
X118151100Y-99753600D03*
D38*
X172965802Y-121178319D03*
X174536398Y-121828881D03*
D39*
X164675819Y-80788898D03*
X165326381Y-79218302D03*
D11*
X168501100Y-101153600D03*
X168501100Y-102853600D03*
D20*
X148501100Y-133733600D03*
X148501100Y-136273600D03*
X168853074Y-84651626D03*
X170649126Y-82855574D03*
D23*
X177401100Y-109753600D03*
X179101100Y-109753600D03*
D40*
X124602141Y-121902559D03*
X123400059Y-123104641D03*
D41*
X176965802Y-97828881D03*
X178536398Y-97178319D03*
D12*
X157501100Y-123353600D03*
X157501100Y-121653600D03*
D42*
X150326100Y-123503600D03*
X154626100Y-123503600D03*
D43*
X182836713Y-122193358D03*
X182165487Y-123813842D03*
D11*
X165501100Y-119153600D03*
X165501100Y-120853600D03*
D44*
X157001100Y-104677600D03*
X157001100Y-114329600D03*
D27*
X121984596Y-78487097D03*
D23*
X142651100Y-114003600D03*
X144351100Y-114003600D03*
D45*
X135451100Y-122503600D03*
X133551100Y-122503600D03*
X134501100Y-124603600D03*
D11*
X139001100Y-96653600D03*
X139001100Y-98353600D03*
D12*
X128501100Y-108853600D03*
X128501100Y-107153600D03*
D23*
X156651100Y-83503600D03*
X158351100Y-83503600D03*
D20*
X160015092Y-131330273D03*
X160987108Y-133676927D03*
D46*
X119786398Y-111928319D03*
X118215802Y-112578881D03*
D12*
X128501100Y-102853600D03*
X128501100Y-101153600D03*
D47*
X124286398Y-89078881D03*
X122715802Y-88428319D03*
D12*
X153501100Y-76353600D03*
X153501100Y-74653600D03*
D48*
X158311100Y-94813600D03*
X157361100Y-94813600D03*
X156411100Y-94813600D03*
X156411100Y-97313600D03*
X157361100Y-97313600D03*
X158311100Y-97313600D03*
D49*
X144111100Y-98003600D03*
X146651100Y-98003600D03*
X147921100Y-98003600D03*
X145381100Y-98003600D03*
D50*
X153626100Y-87378600D03*
D49*
X153001100Y-98003600D03*
X151731100Y-98003600D03*
X150461100Y-98003600D03*
X149191100Y-98003600D03*
D51*
X172150059Y-88104641D03*
X173352141Y-86902559D03*
D52*
X132189700Y-119602400D03*
X134501100Y-119602400D03*
X136812500Y-119602400D03*
D53*
X134501100Y-113404600D03*
D11*
X141501100Y-96653600D03*
X141501100Y-98353600D03*
D30*
X175017603Y-78487097D03*
D39*
X180425819Y-123038898D03*
X181076381Y-121468302D03*
D34*
X135451100Y-109653600D03*
D33*
X131101100Y-105003600D03*
X134901100Y-105003600D03*
D35*
X131731100Y-107753600D03*
X134271100Y-107753600D03*
X134271100Y-102253600D03*
X131731100Y-102253600D03*
D20*
X174827773Y-93489608D03*
X177174427Y-92517592D03*
D12*
X163001100Y-92353600D03*
X163001100Y-90653600D03*
D20*
X148501100Y-76273600D03*
X148501100Y-73733600D03*
D11*
X142501100Y-121153600D03*
X142501100Y-122853600D03*
D23*
X170651100Y-106003600D03*
X172351100Y-106003600D03*
D54*
X150401100Y-140553600D03*
X146601100Y-140553600D03*
D55*
X153471100Y-68403600D03*
X143471100Y-68403600D03*
D56*
X185501100Y-103003600D03*
X185501100Y-105003600D03*
X185501100Y-107003600D03*
D57*
X185501100Y-100903600D03*
X185501100Y-109103600D03*
M02*
