G04 #@! TF.GenerationSoftware,KiCad,Pcbnew,(6.0.4-0)*
G04 #@! TF.CreationDate,2022-11-18T23:15:20+01:00*
G04 #@! TF.ProjectId,iO_Atletehe_rev1,694f5f41-746c-4657-9465-68655f726576,rev?*
G04 #@! TF.SameCoordinates,Original*
G04 #@! TF.FileFunction,Copper,L1,Top*
G04 #@! TF.FilePolarity,Positive*
%FSLAX46Y46*%
G04 Gerber Fmt 4.6, Leading zero omitted, Abs format (unit mm)*
G04 Created by KiCad (PCBNEW (6.0.4-0)) date 2022-11-18 23:15:20*
%MOMM*%
%LPD*%
G01*
G04 APERTURE LIST*
G04 Aperture macros list*
%AMRoundRect*
0 Rectangle with rounded corners*
0 $1 Rounding radius*
0 $2 $3 $4 $5 $6 $7 $8 $9 X,Y pos of 4 corners*
0 Add a 4 corners polygon primitive as box body*
4,1,4,$2,$3,$4,$5,$6,$7,$8,$9,$2,$3,0*
0 Add four circle primitives for the rounded corners*
1,1,$1+$1,$2,$3*
1,1,$1+$1,$4,$5*
1,1,$1+$1,$6,$7*
1,1,$1+$1,$8,$9*
0 Add four rect primitives between the rounded corners*
20,1,$1+$1,$2,$3,$4,$5,0*
20,1,$1+$1,$4,$5,$6,$7,0*
20,1,$1+$1,$6,$7,$8,$9,0*
20,1,$1+$1,$8,$9,$2,$3,0*%
%AMRotRect*
0 Rectangle, with rotation*
0 The origin of the aperture is its center*
0 $1 length*
0 $2 width*
0 $3 Rotation angle, in degrees counterclockwise*
0 Add horizontal line*
21,1,$1,$2,0,0,$3*%
G04 Aperture macros list end*
G04 #@! TA.AperFunction,ComponentPad*
%ADD10C,1.308000*%
G04 #@! TD*
G04 #@! TA.AperFunction,SMDPad,CuDef*
%ADD11R,1.000000X1.100000*%
G04 #@! TD*
G04 #@! TA.AperFunction,SMDPad,CuDef*
%ADD12RotRect,1.100000X1.000000X315.000000*%
G04 #@! TD*
G04 #@! TA.AperFunction,SMDPad,CuDef*
%ADD13R,1.270000X0.558800*%
G04 #@! TD*
G04 #@! TA.AperFunction,SMDPad,CuDef*
%ADD14R,0.558800X1.270000*%
G04 #@! TD*
G04 #@! TA.AperFunction,SMDPad,CuDef*
%ADD15R,0.800000X0.900000*%
G04 #@! TD*
G04 #@! TA.AperFunction,ComponentPad*
%ADD16C,1.879600*%
G04 #@! TD*
G04 #@! TA.AperFunction,SMDPad,CuDef*
%ADD17RotRect,1.100000X1.000000X112.500000*%
G04 #@! TD*
G04 #@! TA.AperFunction,SMDPad,CuDef*
%ADD18R,1.525000X0.700000*%
G04 #@! TD*
G04 #@! TA.AperFunction,SMDPad,CuDef*
%ADD19R,2.513000X3.402000*%
G04 #@! TD*
G04 #@! TA.AperFunction,SMDPad,CuDef*
%ADD20R,1.100000X1.000000*%
G04 #@! TD*
G04 #@! TA.AperFunction,SMDPad,CuDef*
%ADD21RoundRect,0.015240X0.060960X-0.137160X0.060960X0.137160X-0.060960X0.137160X-0.060960X-0.137160X0*%
G04 #@! TD*
G04 #@! TA.AperFunction,SMDPad,CuDef*
%ADD22RoundRect,0.015240X-0.060960X0.137160X-0.060960X-0.137160X0.060960X-0.137160X0.060960X0.137160X0*%
G04 #@! TD*
G04 #@! TA.AperFunction,SMDPad,CuDef*
%ADD23RotRect,1.100000X1.000000X292.500000*%
G04 #@! TD*
G04 #@! TA.AperFunction,SMDPad,CuDef*
%ADD24R,0.450000X1.475000*%
G04 #@! TD*
G04 #@! TA.AperFunction,SMDPad,CuDef*
%ADD25RoundRect,0.150000X-0.457297X-0.189419X0.189419X-0.457297X0.457297X0.189419X-0.189419X0.457297X0*%
G04 #@! TD*
G04 #@! TA.AperFunction,SMDPad,CuDef*
%ADD26RotRect,1.100000X1.000000X247.500000*%
G04 #@! TD*
G04 #@! TA.AperFunction,SMDPad,CuDef*
%ADD27RoundRect,0.150000X-0.189419X-0.457297X0.457297X-0.189419X0.189419X0.457297X-0.457297X0.189419X0*%
G04 #@! TD*
G04 #@! TA.AperFunction,SMDPad,CuDef*
%ADD28R,1.550000X2.200000*%
G04 #@! TD*
G04 #@! TA.AperFunction,SMDPad,CuDef*
%ADD29R,0.900000X0.800000*%
G04 #@! TD*
G04 #@! TA.AperFunction,ComponentPad*
%ADD30C,1.550000*%
G04 #@! TD*
G04 #@! TA.AperFunction,SMDPad,CuDef*
%ADD31R,1.200000X0.600000*%
G04 #@! TD*
G04 #@! TA.AperFunction,SMDPad,CuDef*
%ADD32RotRect,1.100000X1.000000X135.000000*%
G04 #@! TD*
G04 #@! TA.AperFunction,SMDPad,CuDef*
%ADD33RotRect,1.100000X1.000000X337.500000*%
G04 #@! TD*
G04 #@! TA.AperFunction,SMDPad,CuDef*
%ADD34RotRect,1.100000X1.000000X67.500000*%
G04 #@! TD*
G04 #@! TA.AperFunction,SMDPad,CuDef*
%ADD35RotRect,1.100000X1.000000X225.000000*%
G04 #@! TD*
G04 #@! TA.AperFunction,SMDPad,CuDef*
%ADD36RotRect,1.100000X1.000000X22.500000*%
G04 #@! TD*
G04 #@! TA.AperFunction,SMDPad,CuDef*
%ADD37R,2.500000X6.000000*%
G04 #@! TD*
G04 #@! TA.AperFunction,SMDPad,CuDef*
%ADD38RoundRect,0.150000X0.457297X0.189419X-0.189419X0.457297X-0.457297X-0.189419X0.189419X-0.457297X0*%
G04 #@! TD*
G04 #@! TA.AperFunction,SMDPad,CuDef*
%ADD39R,1.930400X5.334000*%
G04 #@! TD*
G04 #@! TA.AperFunction,SMDPad,CuDef*
%ADD40RotRect,1.100000X1.000000X202.500000*%
G04 #@! TD*
G04 #@! TA.AperFunction,SMDPad,CuDef*
%ADD41RotRect,1.100000X1.000000X157.500000*%
G04 #@! TD*
G04 #@! TA.AperFunction,SMDPad,CuDef*
%ADD42R,0.600000X1.200000*%
G04 #@! TD*
G04 #@! TA.AperFunction,SMDPad,CuDef*
%ADD43R,0.812800X1.676400*%
G04 #@! TD*
G04 #@! TA.AperFunction,ComponentPad*
%ADD44R,1.308000X1.308000*%
G04 #@! TD*
G04 #@! TA.AperFunction,SMDPad,CuDef*
%ADD45RotRect,1.100000X1.000000X45.000000*%
G04 #@! TD*
G04 #@! TA.AperFunction,SMDPad,CuDef*
%ADD46R,1.219200X2.235200*%
G04 #@! TD*
G04 #@! TA.AperFunction,SMDPad,CuDef*
%ADD47R,3.600000X2.200000*%
G04 #@! TD*
G04 #@! TA.AperFunction,ComponentPad*
%ADD48C,2.540000*%
G04 #@! TD*
G04 #@! TA.AperFunction,ComponentPad*
%ADD49C,1.300000*%
G04 #@! TD*
G04 #@! TA.AperFunction,ComponentPad*
%ADD50C,1.875000*%
G04 #@! TD*
G04 #@! TA.AperFunction,ViaPad*
%ADD51C,0.756400*%
G04 #@! TD*
G04 #@! TA.AperFunction,Conductor*
%ADD52C,0.250000*%
G04 #@! TD*
G04 #@! TA.AperFunction,Conductor*
%ADD53C,0.304800*%
G04 #@! TD*
G04 #@! TA.AperFunction,Conductor*
%ADD54C,0.203200*%
G04 #@! TD*
G04 #@! TA.AperFunction,Conductor*
%ADD55C,0.406400*%
G04 #@! TD*
G04 #@! TA.AperFunction,Conductor*
%ADD56C,0.508000*%
G04 #@! TD*
G04 #@! TA.AperFunction,Conductor*
%ADD57C,0.254000*%
G04 #@! TD*
G04 #@! TA.AperFunction,Conductor*
%ADD58C,0.609600*%
G04 #@! TD*
G04 APERTURE END LIST*
G36*
X139841873Y-112615197D02*
G01*
X140061114Y-112695138D01*
X140264267Y-112809970D01*
X140445822Y-112956582D01*
X140600858Y-113130998D01*
X140725173Y-113328490D01*
X140815397Y-113543704D01*
X140869081Y-113770806D01*
X140884771Y-114003600D01*
X140869081Y-114236394D01*
X140815396Y-114463497D01*
X140725172Y-114678710D01*
X140600858Y-114876202D01*
X140445821Y-115050618D01*
X140264266Y-115197230D01*
X140061114Y-115312062D01*
X139841873Y-115392003D01*
X139609685Y-115435409D01*
X139609685Y-112571791D01*
X139841873Y-112615197D01*
G37*
G36*
X139392515Y-115435409D02*
G01*
X139160327Y-115392003D01*
X138941086Y-115312062D01*
X138737934Y-115197230D01*
X138556379Y-115050618D01*
X138401342Y-114876202D01*
X138277028Y-114678710D01*
X138186804Y-114463497D01*
X138133119Y-114236394D01*
X138117429Y-114003600D01*
X138133119Y-113770806D01*
X138186803Y-113543704D01*
X138277027Y-113328490D01*
X138401342Y-113130998D01*
X138556378Y-112956582D01*
X138737933Y-112809970D01*
X138941086Y-112695138D01*
X139160327Y-112615197D01*
X139392515Y-112571791D01*
X139392515Y-115435409D01*
G37*
D10*
X166979600Y-94030800D03*
X169519600Y-94030800D03*
X166979600Y-96570800D03*
X169519600Y-96570800D03*
X169519600Y-91490800D03*
X166979600Y-91490800D03*
D11*
X171805600Y-97194000D03*
X171805600Y-98894000D03*
X139081100Y-101843600D03*
X139081100Y-100143600D03*
D12*
X165400059Y-128652559D03*
X166602141Y-129854641D03*
D11*
X163001100Y-119153600D03*
X163001100Y-120853600D03*
D13*
X148793700Y-109803600D03*
X148793700Y-109003600D03*
X148793700Y-108203600D03*
X148793700Y-107403600D03*
X148793700Y-106603600D03*
X148793700Y-105803600D03*
X148793700Y-105003600D03*
X148793700Y-104203600D03*
D14*
X147301100Y-102711000D03*
X146501100Y-102711000D03*
X145701100Y-102711000D03*
X144901100Y-102711000D03*
X144101100Y-102711000D03*
X143301100Y-102711000D03*
X142501100Y-102711000D03*
X141701100Y-102711000D03*
D13*
X140208500Y-104203600D03*
X140208500Y-105003600D03*
X140208500Y-105803600D03*
X140208500Y-106603600D03*
X140208500Y-107403600D03*
X140208500Y-108203600D03*
X140208500Y-109003600D03*
X140208500Y-109803600D03*
D14*
X141701100Y-111296200D03*
X142501100Y-111296200D03*
X143301100Y-111296200D03*
X144101100Y-111296200D03*
X144901100Y-111296200D03*
X145701100Y-111296200D03*
X146501100Y-111296200D03*
X147301100Y-111296200D03*
D15*
X163051100Y-88503600D03*
X164951100Y-88503600D03*
X164001100Y-86403600D03*
D16*
X131501100Y-96503600D03*
X133297151Y-94707549D03*
X135093202Y-92911498D03*
X136889254Y-91115446D03*
X138685305Y-89319395D03*
X140481356Y-87523344D03*
D17*
X141326381Y-76538898D03*
X140675819Y-74968302D03*
D11*
X143501100Y-133653600D03*
X143501100Y-135353600D03*
D18*
X162959100Y-112618600D03*
X162959100Y-113888600D03*
X162959100Y-115158600D03*
X162959100Y-116428600D03*
X168383100Y-116428600D03*
X168383100Y-115158600D03*
X168383100Y-113888600D03*
X168383100Y-112618600D03*
D19*
X165671100Y-114523600D03*
D16*
X177231100Y-105003600D03*
X179771100Y-105003600D03*
X168853074Y-125355574D03*
X170649126Y-127151626D03*
X136987108Y-131330273D03*
X136015092Y-133676927D03*
D11*
X138001100Y-122653600D03*
X138001100Y-124353600D03*
D20*
X148351100Y-116003600D03*
X146651100Y-116003600D03*
D21*
X140771100Y-114003600D03*
D22*
X138231100Y-114003600D03*
D11*
X153001100Y-107153600D03*
X153001100Y-108853600D03*
D23*
X155675819Y-133218302D03*
X156326381Y-134788898D03*
D16*
X128149126Y-125355574D03*
X126353074Y-127151626D03*
D20*
X142651100Y-116003600D03*
X144351100Y-116003600D03*
D24*
X158336100Y-86465600D03*
X157686100Y-86465600D03*
X157036100Y-86465600D03*
X156386100Y-86465600D03*
X156386100Y-92341600D03*
X157036100Y-92341600D03*
X157686100Y-92341600D03*
X158336100Y-92341600D03*
D11*
X161001100Y-96853600D03*
X161001100Y-95153600D03*
D25*
X184665487Y-118813842D03*
X185336713Y-117193358D03*
D23*
X182675819Y-92718302D03*
X183326381Y-94288898D03*
D16*
X128149126Y-84651626D03*
X126353074Y-82855574D03*
D20*
X156651100Y-100003600D03*
X158351100Y-100003600D03*
D11*
X152001100Y-104853600D03*
X152001100Y-103153600D03*
D20*
X146651100Y-118003600D03*
X148351100Y-118003600D03*
D16*
X174827773Y-116517592D03*
X177174427Y-117489608D03*
D26*
X183326381Y-116218302D03*
X182675819Y-117788898D03*
D16*
X122174427Y-116517592D03*
X119827773Y-117489608D03*
D11*
X168501100Y-108353600D03*
X168501100Y-106653600D03*
X136501100Y-96653600D03*
X136501100Y-98353600D03*
D27*
X185336713Y-93313842D03*
X184665487Y-91693358D03*
D26*
X132326381Y-129468302D03*
X131675819Y-131038898D03*
D28*
X145501100Y-121453600D03*
X145501100Y-125553600D03*
D16*
X136987108Y-78676927D03*
X136015092Y-76330273D03*
X119771100Y-105003600D03*
X117231100Y-105003600D03*
D11*
X129501100Y-116853600D03*
X129501100Y-115153600D03*
D29*
X126501100Y-103953600D03*
X126501100Y-102053600D03*
X124401100Y-103003600D03*
X170501100Y-101553600D03*
X170501100Y-103453600D03*
X172601100Y-102503600D03*
D11*
X139501100Y-119853600D03*
X139501100Y-118153600D03*
D20*
X126351100Y-106003600D03*
X124651100Y-106003600D03*
D16*
X122174427Y-93489608D03*
X119827773Y-92517592D03*
D30*
X162731100Y-107753600D03*
X165271100Y-107753600D03*
X165271100Y-102253600D03*
X162731100Y-102253600D03*
D31*
X150751100Y-116053600D03*
X150751100Y-117003600D03*
X150751100Y-117953600D03*
X153251100Y-117953600D03*
X153251100Y-117003600D03*
X153251100Y-116053600D03*
D16*
X160265092Y-78676927D03*
X161237108Y-76330273D03*
D32*
X131602141Y-81104641D03*
X130400059Y-79902559D03*
D20*
X119851100Y-99753600D03*
X118151100Y-99753600D03*
D33*
X172965802Y-121178319D03*
X174536398Y-121828881D03*
D34*
X164675819Y-80788898D03*
X165326381Y-79218302D03*
D11*
X168501100Y-101153600D03*
X168501100Y-102853600D03*
D16*
X148501100Y-133733600D03*
X148501100Y-136273600D03*
X168853074Y-84651626D03*
X170649126Y-82855574D03*
D20*
X177401100Y-109753600D03*
X179101100Y-109753600D03*
D35*
X124602141Y-121902559D03*
X123400059Y-123104641D03*
D36*
X176965802Y-97828881D03*
X178536398Y-97178319D03*
D11*
X157501100Y-123353600D03*
X157501100Y-121653600D03*
D37*
X150326100Y-123503600D03*
X154626100Y-123503600D03*
D38*
X182836713Y-122193358D03*
X182165487Y-123813842D03*
D11*
X165501100Y-119153600D03*
X165501100Y-120853600D03*
D39*
X157001100Y-104677600D03*
X157001100Y-114329600D03*
D20*
X142651100Y-114003600D03*
X144351100Y-114003600D03*
D15*
X135451100Y-122503600D03*
X133551100Y-122503600D03*
X134501100Y-124603600D03*
D11*
X139001100Y-96653600D03*
X139001100Y-98353600D03*
X128501100Y-108853600D03*
X128501100Y-107153600D03*
D20*
X156651100Y-83503600D03*
X158351100Y-83503600D03*
D16*
X160015092Y-131330273D03*
X160987108Y-133676927D03*
D40*
X119786398Y-111928319D03*
X118215802Y-112578881D03*
D11*
X128501100Y-102853600D03*
X128501100Y-101153600D03*
D41*
X124286398Y-89078881D03*
X122715802Y-88428319D03*
D11*
X153501100Y-76353600D03*
X153501100Y-74653600D03*
D42*
X158311100Y-94813600D03*
X157361100Y-94813600D03*
X156411100Y-94813600D03*
X156411100Y-97313600D03*
X157361100Y-97313600D03*
X158311100Y-97313600D03*
D43*
X144111100Y-98003600D03*
X146651100Y-98003600D03*
X147921100Y-98003600D03*
X145381100Y-98003600D03*
D44*
X153626100Y-87378600D03*
D43*
X153001100Y-98003600D03*
X151731100Y-98003600D03*
X150461100Y-98003600D03*
X149191100Y-98003600D03*
D45*
X172150059Y-88104641D03*
X173352141Y-86902559D03*
D46*
X132189700Y-119602400D03*
X134501100Y-119602400D03*
X136812500Y-119602400D03*
D47*
X134501100Y-113404600D03*
D11*
X141501100Y-96653600D03*
X141501100Y-98353600D03*
D34*
X180425819Y-123038898D03*
X181076381Y-121468302D03*
D30*
X131731100Y-107753600D03*
X134271100Y-107753600D03*
X134271100Y-102253600D03*
X131731100Y-102253600D03*
D16*
X174827773Y-93489608D03*
X177174427Y-92517592D03*
D11*
X163001100Y-92353600D03*
X163001100Y-90653600D03*
D16*
X148501100Y-76273600D03*
X148501100Y-73733600D03*
D11*
X142501100Y-121153600D03*
X142501100Y-122853600D03*
D20*
X170651100Y-106003600D03*
X172351100Y-106003600D03*
D48*
X153471100Y-68403600D03*
X143471100Y-68403600D03*
D49*
X185501100Y-103003600D03*
X185501100Y-105003600D03*
X185501100Y-107003600D03*
D50*
X185501100Y-100903600D03*
X185501100Y-109103600D03*
D51*
X168656000Y-98755200D03*
X153263600Y-100380800D03*
X165252400Y-85648800D03*
X153060400Y-93827600D03*
X166573200Y-87071200D03*
X153009600Y-95300800D03*
X112501100Y-97003600D03*
X113001100Y-115003600D03*
X163001100Y-71003600D03*
X140505100Y-119044800D03*
X140501100Y-123003600D03*
X137501100Y-69503600D03*
X182001100Y-88503600D03*
X138501100Y-140503600D03*
X157501100Y-118003600D03*
X127001100Y-74503600D03*
X129001100Y-136503600D03*
X117001100Y-124003600D03*
X178001100Y-83003600D03*
X185001100Y-113003600D03*
X116501100Y-87003600D03*
X163001100Y-138503600D03*
X169001100Y-74503600D03*
X169501100Y-135503600D03*
X141660800Y-94508400D03*
X143261000Y-101531500D03*
X139793900Y-95219600D03*
X146817000Y-96553100D03*
X147261500Y-99397900D03*
X142283100Y-101353700D03*
X140505100Y-95841900D03*
X142283100Y-95219600D03*
X140771800Y-93797200D03*
X139082700Y-94597300D03*
X147439300Y-95841900D03*
X140149500Y-101709300D03*
X141483000Y-113799700D03*
X152239900Y-111843900D03*
X153573400Y-113888600D03*
X142994300Y-108821300D03*
X150728600Y-113177400D03*
X150001100Y-110003600D03*
X169486500Y-105798700D03*
X150001100Y-109003600D03*
X142105300Y-92641500D03*
X147883800Y-100820300D03*
X143794400Y-93352700D03*
X132326300Y-99309000D03*
X148506100Y-101531500D03*
X151501100Y-129503600D03*
X154001100Y-128003600D03*
X147001100Y-112503600D03*
X142001100Y-107003600D03*
X154001100Y-130003600D03*
X142001100Y-108003600D03*
X147001100Y-113503600D03*
X151001100Y-131503600D03*
X148501100Y-112503600D03*
X160001100Y-101003600D03*
X162501100Y-93503600D03*
X160001100Y-109003600D03*
X142501100Y-112903600D03*
X142001100Y-109003600D03*
X132501100Y-80003600D03*
X147001100Y-107503600D03*
X167001100Y-118003600D03*
X171001100Y-113003600D03*
X175501100Y-110503600D03*
X183807725Y-120398960D03*
X166819500Y-112288400D03*
X155440300Y-127934800D03*
X169753200Y-114155300D03*
X166730600Y-117089000D03*
X163001100Y-95003600D03*
X160001100Y-123003600D03*
D52*
X153263600Y-100380800D02*
X151731100Y-98848300D01*
X151731100Y-98848300D02*
X151731100Y-98003600D01*
X169519600Y-96570800D02*
X169519600Y-97891600D01*
X169519600Y-97891600D02*
X168656000Y-98755200D01*
X153060400Y-93827600D02*
X150825200Y-93827600D01*
X149191100Y-95461700D02*
X149191100Y-98003600D01*
X150825200Y-93827600D02*
X149191100Y-95461700D01*
X169519600Y-94030800D02*
X168588689Y-93099889D01*
X168588689Y-93099889D02*
X168588689Y-88121489D01*
X168588689Y-88121489D02*
X166217600Y-85750400D01*
D53*
X166979600Y-91490800D02*
X166979600Y-89408000D01*
X166979600Y-89408000D02*
X166075200Y-88503600D01*
X166075200Y-88503600D02*
X164951100Y-88503600D01*
D52*
X153009600Y-95300800D02*
X151028400Y-95300800D01*
X151028400Y-95300800D02*
X150461100Y-95868100D01*
X150461100Y-95868100D02*
X150461100Y-98003600D01*
X166979600Y-94030800D02*
X167910511Y-93099889D01*
X167910511Y-93099889D02*
X167910511Y-88408511D01*
X167910511Y-88408511D02*
X166573200Y-87071200D01*
X166979600Y-96570800D02*
X166979600Y-99087173D01*
X166979600Y-99087173D02*
X165611342Y-100455431D01*
X169519600Y-91490800D02*
X171805600Y-93776800D01*
X171805600Y-93776800D02*
X171805600Y-97194000D01*
X171805600Y-98894000D02*
X171805600Y-99227800D01*
X171805600Y-99227800D02*
X172821600Y-100243800D01*
D53*
X146943623Y-139726679D02*
X147270872Y-140053928D01*
X138501100Y-140503600D02*
X139278021Y-139726679D01*
X139278021Y-139726679D02*
X146943623Y-139726679D01*
D52*
X172821600Y-100243800D02*
X172778500Y-100286900D01*
D54*
X166166912Y-100286900D02*
X172778500Y-100286900D01*
X172778500Y-100286900D02*
X175561987Y-100286900D01*
D55*
X164951100Y-95553600D02*
X164567750Y-95936950D01*
X164567750Y-95936950D02*
X160501100Y-100003600D01*
D53*
X164063600Y-114333100D02*
X163263500Y-115133200D01*
D55*
X148843700Y-108253600D02*
X148793700Y-108203600D01*
X150501100Y-108003600D02*
X151501100Y-109003600D01*
D53*
X162819000Y-115222100D02*
X162552300Y-115222100D01*
D55*
X126501100Y-102053600D02*
X126521158Y-102231617D01*
X138231100Y-107773600D02*
X138231100Y-114003600D01*
X141501100Y-96653600D02*
X142151100Y-96003600D01*
D53*
X176598500Y-110599300D02*
X179798900Y-110599300D01*
D55*
X169501100Y-103503600D02*
X170451100Y-103503600D01*
X128001100Y-107003600D02*
X127001100Y-108003600D01*
X151500200Y-113504500D02*
X150001100Y-115003600D01*
X138231100Y-114003600D02*
X138334425Y-114024153D01*
D53*
X133501100Y-122453600D02*
X133501100Y-122453600D01*
D55*
X132501100Y-119913800D02*
X132189700Y-119602400D01*
X145381100Y-98003600D02*
X145381100Y-96383600D01*
D53*
X144416700Y-122867500D02*
X146461400Y-122867500D01*
D55*
X169351100Y-107503600D02*
X170001100Y-107503600D01*
X138651100Y-118153600D02*
X139501100Y-118153600D01*
D53*
X158285100Y-108376800D02*
X158285100Y-101887100D01*
X133871690Y-121520637D02*
X133751100Y-121570587D01*
D55*
X162844100Y-112503600D02*
X162959100Y-112618600D01*
X138501100Y-118003600D02*
X138521196Y-118078600D01*
X154501100Y-90503600D02*
X156086887Y-90503600D01*
X168501100Y-102853600D02*
X168851100Y-102853600D01*
D53*
X133501100Y-122453600D02*
X133551100Y-122503600D01*
D55*
X132501100Y-120503600D02*
X132501100Y-119913800D01*
X156793993Y-90796494D02*
X156793992Y-90796493D01*
D53*
X128148000Y-100020200D02*
X126547800Y-101620400D01*
D55*
X138231100Y-114003600D02*
X138231100Y-114003600D01*
D53*
X158107300Y-120822800D02*
X158151100Y-121003600D01*
D55*
X145001100Y-96003600D02*
X145381100Y-96383600D01*
D53*
X126547800Y-101887100D02*
X126501100Y-102053600D01*
X144683400Y-127045800D02*
X144416700Y-126779100D01*
D55*
X157501100Y-101503600D02*
X155001100Y-101503600D01*
X150915312Y-90503600D02*
X150915312Y-90503600D01*
D53*
X163263500Y-115133200D02*
X162996800Y-115133200D01*
X160685400Y-123312000D02*
X156951600Y-127045800D01*
D55*
X138521196Y-118078600D02*
X138576100Y-118133504D01*
X126580325Y-102400707D02*
X126675635Y-102552392D01*
X128501100Y-102853600D02*
X128501100Y-107153600D01*
D53*
X181488000Y-108199000D02*
X181488000Y-104198500D01*
D56*
X140651100Y-122853600D02*
X140501100Y-123003600D01*
D53*
X161841100Y-116911200D02*
X162730100Y-117800200D01*
D55*
X154501100Y-101003600D02*
X154501100Y-90503600D01*
X140208500Y-107403600D02*
X140108500Y-107503600D01*
X156973178Y-91064663D02*
X157036100Y-91380991D01*
X145381100Y-99123600D02*
X145381100Y-98003600D01*
X144361100Y-100143600D02*
X145381100Y-99123600D01*
D53*
X156951600Y-127045800D02*
X144683400Y-127045800D01*
X136326800Y-96730900D02*
X136501100Y-96653600D01*
D55*
X158001100Y-101003600D02*
X157701350Y-101303350D01*
X127001100Y-112653600D02*
X127001100Y-108003600D01*
X156793992Y-90796493D02*
X156896791Y-90921754D01*
D53*
X160685400Y-121089500D02*
X160685400Y-123312000D01*
D55*
X145001100Y-92457307D02*
X145001100Y-96003600D01*
D53*
X157840600Y-108821300D02*
X157751100Y-109003600D01*
D55*
X150001100Y-108003600D02*
X149751100Y-108253600D01*
D53*
X133037500Y-100020200D02*
X128148000Y-100020200D01*
X158107300Y-120822800D02*
X158107300Y-119578200D01*
D55*
X156281977Y-90522815D02*
X156469570Y-90579721D01*
X164501100Y-111503600D02*
X163501100Y-112503600D01*
D53*
X133751100Y-121570587D02*
X133647547Y-121650047D01*
D55*
X150001100Y-117003600D02*
X150001100Y-117003600D01*
D53*
X175798400Y-109799200D02*
X176598500Y-110599300D01*
D55*
X126802308Y-102679065D02*
X126953993Y-102774375D01*
X149501100Y-115003600D02*
X149501100Y-116503600D01*
X171001100Y-109799200D02*
X171001100Y-110503600D01*
D56*
X140651100Y-122853600D02*
X142501100Y-122853600D01*
D55*
X138310181Y-107582681D02*
X138231100Y-107773600D01*
D53*
X140501100Y-122503600D02*
X140501100Y-122503600D01*
X179976700Y-110421500D02*
X179976700Y-109710300D01*
D55*
X170001100Y-107503600D02*
X171001100Y-108503600D01*
X138422019Y-114082681D02*
X138501100Y-114273600D01*
X149568087Y-116753600D02*
X149518137Y-116633010D01*
X144924979Y-92074623D02*
X145001100Y-92457307D01*
D53*
X140208207Y-121796493D02*
X140056670Y-121672130D01*
X162730100Y-117800200D02*
X163174600Y-117800200D01*
D55*
X144708206Y-91750200D02*
X144708206Y-91750200D01*
X139081100Y-100143600D02*
X144361100Y-100143600D01*
D53*
X163885800Y-118511400D02*
X163885800Y-120853600D01*
X139616100Y-118155800D02*
X140505100Y-119044800D01*
X152151000Y-113621900D02*
X151617600Y-113621900D01*
X181488000Y-104198500D02*
X183266000Y-102420500D01*
D55*
X158351100Y-100003600D02*
X158001100Y-100353600D01*
X128481004Y-107078600D02*
X128426100Y-107023696D01*
X162844100Y-112503600D02*
X161251100Y-112503600D01*
X156896791Y-90921754D02*
X156973178Y-91064663D01*
X157751100Y-109003600D02*
X161251100Y-112503600D01*
X150001100Y-115003600D02*
X149501100Y-115003600D01*
D53*
X139883783Y-121579720D02*
X139501100Y-121503600D01*
D55*
X157751100Y-109003600D02*
X156001100Y-109003600D01*
X160501100Y-121003600D02*
X160651100Y-120853600D01*
X153001100Y-107153600D02*
X152001100Y-104853600D01*
D53*
X144416700Y-126779100D02*
X144416700Y-122867500D01*
D55*
X128501100Y-107153600D02*
X128481004Y-107078600D01*
D53*
X140056670Y-121672130D02*
X139883783Y-121579720D01*
D55*
X150720222Y-90522815D02*
X150532629Y-90579721D01*
D53*
X133501100Y-122003600D02*
X133501100Y-122453600D01*
D55*
X140108500Y-107503600D02*
X138501100Y-107503600D01*
D53*
X134001100Y-121503600D02*
X133871690Y-121520637D01*
D55*
X168501100Y-106653600D02*
X169351100Y-107503600D01*
X163885800Y-120853600D02*
X165501100Y-120853600D01*
X158001100Y-100353600D02*
X158001100Y-101003600D01*
X139001100Y-96653600D02*
X141501100Y-96653600D01*
D53*
X160685400Y-121089500D02*
X160501100Y-121003600D01*
D55*
X163501100Y-112503600D02*
X162844100Y-112503600D01*
X150915312Y-90503600D02*
X150720222Y-90522815D01*
X136501100Y-96653600D02*
X139001100Y-96653600D01*
D53*
X126547800Y-101620400D02*
X126547800Y-101887100D01*
X179976700Y-109710300D02*
X181488000Y-108199000D01*
X158285100Y-101887100D02*
X157701350Y-101303350D01*
D55*
X128426100Y-107023696D02*
X128351100Y-107003600D01*
D53*
X179798900Y-110599300D02*
X179976700Y-110421500D01*
X146639200Y-118066900D02*
X146651100Y-118003600D01*
X133518137Y-121874190D02*
X133501100Y-122003600D01*
D55*
X154151100Y-107153600D02*
X153001100Y-107153600D01*
X170451100Y-103503600D02*
X170501100Y-103453600D01*
X138397775Y-107524153D02*
X138310181Y-107582681D01*
D53*
X183266000Y-102420500D02*
X183266000Y-94330600D01*
D55*
X138576100Y-118133504D02*
X138651100Y-118153600D01*
D53*
X158107300Y-119578200D02*
X152151000Y-113621900D01*
D55*
X150751100Y-117003600D02*
X150001100Y-117003600D01*
D53*
X161841100Y-115933300D02*
X161841100Y-116911200D01*
X157840600Y-108821300D02*
X158285100Y-108376800D01*
D55*
X128351100Y-107003600D02*
X128001100Y-107003600D01*
D53*
X142727600Y-122867500D02*
X144416700Y-122867500D01*
D55*
X133551100Y-121553600D02*
X132501100Y-120503600D01*
X126675635Y-102552392D02*
X126802308Y-102679065D01*
X154501100Y-90503600D02*
X150915312Y-90503600D01*
D53*
X146461400Y-122867500D02*
X146639200Y-122689700D01*
D55*
X150532629Y-90579721D02*
X150208206Y-90796494D01*
X138501100Y-107503600D02*
X138397775Y-107524153D01*
D53*
X163619100Y-112644000D02*
X164063600Y-113088500D01*
D55*
X127301100Y-102853600D02*
X128501100Y-102853600D01*
X149751100Y-116936613D02*
X149647547Y-116857153D01*
X156469570Y-90579721D02*
X156793993Y-90796494D01*
X150001100Y-106753600D02*
X150001100Y-108003600D01*
D53*
X163619100Y-112644000D02*
X162959100Y-112618600D01*
D55*
X149647547Y-116857153D02*
X149568087Y-116753600D01*
X157036100Y-91380991D02*
X157036100Y-92341600D01*
X126521158Y-102231617D02*
X126580325Y-102400707D01*
D53*
X140501100Y-122503600D02*
X140481885Y-122308510D01*
X151617600Y-113621900D02*
X151500200Y-113504500D01*
X140481885Y-122308510D02*
X140424980Y-122120917D01*
D55*
X156086887Y-90503600D02*
X156086886Y-90503600D01*
X156086886Y-90503600D02*
X156281977Y-90522815D01*
X150001100Y-108003600D02*
X150501100Y-108003600D01*
X126953993Y-102774375D02*
X127301100Y-102853600D01*
D53*
X140501100Y-123003600D02*
X140501100Y-122503600D01*
D55*
X144832569Y-91901736D02*
X144924979Y-92074623D01*
X145001100Y-96003600D02*
X142151100Y-96003600D01*
D53*
X134001100Y-121503600D02*
X134001100Y-121503600D01*
D55*
X156001100Y-109003600D02*
X154151100Y-107153600D01*
X138501100Y-107503600D02*
X138501100Y-107503600D01*
D53*
X139616100Y-118155800D02*
X139501100Y-118153600D01*
D55*
X168501100Y-102853600D02*
X168501100Y-106653600D01*
X138501100Y-118003600D02*
X138501100Y-118003600D01*
D53*
X163174600Y-117800200D02*
X163885800Y-118511400D01*
D55*
X157501100Y-121653600D02*
X158151100Y-121003600D01*
D53*
X162552300Y-115222100D02*
X161841100Y-115933300D01*
X146639200Y-122689700D02*
X146639200Y-118066900D01*
X162996800Y-115133200D02*
X162959100Y-115158600D01*
D55*
X170001100Y-111503600D02*
X164501100Y-111503600D01*
D53*
X136326800Y-96730900D02*
X133037500Y-100020200D01*
X162819000Y-115222100D02*
X162959100Y-115158600D01*
X140424980Y-122120917D02*
X140332570Y-121948030D01*
D55*
X150208206Y-90796494D02*
X145001100Y-96003600D01*
X149751100Y-108253600D02*
X148843700Y-108253600D01*
X133551100Y-122503600D02*
X133551100Y-121553600D01*
X149518137Y-116633010D02*
X149501100Y-116503600D01*
X140208500Y-107403600D02*
X140208500Y-107403600D01*
D53*
X171001100Y-109799200D02*
X175798400Y-109799200D01*
D55*
X157701350Y-101303350D02*
X157501100Y-101503600D01*
D53*
X139501100Y-121503600D02*
X134001100Y-121503600D01*
D55*
X149871690Y-116986563D02*
X149751100Y-116936613D01*
X151501100Y-109003600D02*
X151501100Y-113503600D01*
X151501100Y-113503600D02*
X151500200Y-113504500D01*
D53*
X142727600Y-122867500D02*
X142501100Y-122853600D01*
D55*
X126501100Y-102053600D02*
X126501100Y-102053600D01*
X155001100Y-101503600D02*
X154501100Y-101003600D01*
X144708206Y-91750200D02*
X144832569Y-91901736D01*
X148793700Y-106603600D02*
X149851100Y-106603600D01*
X168851100Y-102853600D02*
X169501100Y-103503600D01*
X138334425Y-114024153D02*
X138422019Y-114082681D01*
X163001100Y-120853600D02*
X163885800Y-120853600D01*
X149851100Y-106603600D02*
X150001100Y-106753600D01*
X171001100Y-108503600D02*
X171001100Y-109799200D01*
X160651100Y-120853600D02*
X163001100Y-120853600D01*
X128501100Y-107153600D02*
X128501100Y-107153600D01*
X150001100Y-117003600D02*
X149871690Y-116986563D01*
X140481353Y-87523347D02*
X144708206Y-91750200D01*
X160501100Y-100003600D02*
X158351100Y-100003600D01*
D53*
X164063600Y-113088500D02*
X164063600Y-114333100D01*
D55*
X164951100Y-88503600D02*
X164951100Y-95553600D01*
D53*
X140332570Y-121948030D02*
X140208207Y-121796493D01*
D55*
X158151100Y-121003600D02*
X160501100Y-121003600D01*
D53*
X183266000Y-94330600D02*
X183326378Y-94288900D01*
X157686100Y-92341600D02*
X157036100Y-92341600D01*
D55*
X171001100Y-110503600D02*
X170001100Y-111503600D01*
D53*
X133647547Y-121650047D02*
X133568087Y-121753600D01*
D55*
X138501100Y-114273600D02*
X138501100Y-118003600D01*
D53*
X133568087Y-121753600D02*
X133518137Y-121874190D01*
D55*
X129501100Y-115153600D02*
X127001100Y-112653600D01*
D53*
X144901100Y-111296200D02*
X145001100Y-111396200D01*
D57*
X144901100Y-113453600D02*
X144901100Y-111296200D01*
X142651100Y-116003600D02*
X140771100Y-114123600D01*
X144901100Y-113453600D02*
X144351100Y-114003600D01*
X144351100Y-114003600D02*
X142651100Y-115703600D01*
D53*
X144901100Y-111296200D02*
X144901100Y-111296200D01*
D57*
X142651100Y-115703600D02*
X142651100Y-116003600D01*
X140771100Y-114123600D02*
X140771100Y-114003600D01*
D54*
X140400946Y-94968154D02*
X140270853Y-95074919D01*
X147883800Y-97975500D02*
X147921100Y-98003600D01*
X141079822Y-94527615D02*
X140892229Y-94584521D01*
X140270853Y-95074919D02*
X140122431Y-95154252D01*
X140400946Y-94968154D02*
X140400946Y-94968154D01*
X141660800Y-94508400D02*
X141274912Y-94508400D01*
X147883800Y-97619900D02*
X146817000Y-96553100D01*
X140567806Y-94801294D02*
X140400946Y-94968154D01*
X143261000Y-102687200D02*
X143301100Y-102711000D01*
X141274912Y-94508400D02*
X141079822Y-94527615D01*
X140892229Y-94584521D02*
X140567806Y-94801294D01*
X147883800Y-97975500D02*
X147883800Y-97619900D01*
X141274912Y-94508400D02*
X141274912Y-94508400D01*
X143261000Y-101531500D02*
X143261000Y-102687200D01*
X140122431Y-95154252D02*
X139793900Y-95219600D01*
X150373000Y-98064400D02*
X150461100Y-98003600D01*
X141802156Y-95673370D02*
X141629270Y-95765780D01*
X141629270Y-95765780D02*
X141246587Y-95841900D01*
X141246587Y-95841900D02*
X140505100Y-95841900D01*
X150373000Y-98508900D02*
X149776893Y-99105007D01*
X149452470Y-99321780D02*
X149069787Y-99397900D01*
X149069787Y-99397900D02*
X147261500Y-99397900D01*
X149776893Y-99105007D02*
X149776893Y-99105007D01*
X141953693Y-95549007D02*
X141953693Y-95549007D01*
X150373000Y-98064400D02*
X150373000Y-98508900D01*
X142460900Y-101531500D02*
X142460900Y-102687200D01*
X149776893Y-99105007D02*
X149625356Y-99229370D01*
X142283100Y-95219600D02*
X141953693Y-95549007D01*
X149625356Y-99229370D02*
X149452470Y-99321780D01*
X141953693Y-95549007D02*
X141802156Y-95673370D01*
X142460900Y-102687200D02*
X142501100Y-102711000D01*
X142283100Y-101353700D02*
X142460900Y-101531500D01*
D57*
X151711885Y-99554478D02*
X151654979Y-99742071D01*
X141701100Y-102711000D02*
X141701100Y-102803600D01*
X151731100Y-98003600D02*
X151731100Y-99359388D01*
X151731100Y-99359388D02*
X151711885Y-99554478D01*
X147251100Y-104253600D02*
X141751100Y-104253600D01*
X151438206Y-100066494D02*
X147251100Y-104253600D01*
X151731100Y-99359388D02*
X151731100Y-99359388D01*
X141701100Y-102803600D02*
X141501100Y-103003600D01*
X151654979Y-99742071D02*
X151438206Y-100066494D01*
X141501100Y-103003600D02*
X141501100Y-104003600D01*
X141751100Y-104253600D02*
X141501100Y-104003600D01*
D54*
X139689746Y-94345854D02*
X139689746Y-94345854D01*
X140149500Y-104198500D02*
X140208500Y-104203600D01*
X140652612Y-93797200D02*
X140652612Y-93797200D01*
X140771800Y-93797200D02*
X140652612Y-93797200D01*
X139559653Y-94452619D02*
X139411231Y-94531952D01*
X139945506Y-94090094D02*
X139689746Y-94345854D01*
X149128400Y-97975500D02*
X149191100Y-98003600D01*
X149128400Y-97975500D02*
X149128400Y-97531000D01*
X140457522Y-93816415D02*
X140269929Y-93873321D01*
X140652612Y-93797200D02*
X140457522Y-93816415D01*
X139411231Y-94531952D02*
X139082700Y-94597300D01*
X139689746Y-94345854D02*
X139559653Y-94452619D01*
X140149500Y-101709300D02*
X140149500Y-104198500D01*
X149128400Y-97531000D02*
X147439300Y-95841900D01*
X140269929Y-93873321D02*
X139945506Y-94090094D01*
X153573400Y-113888600D02*
X152532793Y-112847994D01*
X140060600Y-110866000D02*
X140060600Y-110866000D01*
D55*
X168501100Y-108353600D02*
X167901100Y-107753600D01*
D54*
X152239900Y-112140888D02*
X152239900Y-111843900D01*
X140060600Y-110866000D02*
X140149500Y-110651375D01*
X141483000Y-113799700D02*
X141483000Y-113533000D01*
X152532792Y-112847994D02*
X152408430Y-112696457D01*
X152532793Y-112847994D02*
X152532792Y-112847994D01*
X152408430Y-112696457D02*
X152316020Y-112523571D01*
X152316020Y-112523571D02*
X152239900Y-112140888D01*
D55*
X167901100Y-107753600D02*
X165271100Y-107753600D01*
D54*
X140060600Y-111696388D02*
X140060600Y-110866000D01*
X140136720Y-112079071D02*
X140060600Y-111696388D01*
X140353492Y-112403494D02*
X140229130Y-112251957D01*
X140149500Y-109888100D02*
X140208500Y-109803600D01*
X141483000Y-113533000D02*
X140353493Y-112403494D01*
X140149500Y-110651375D02*
X140149500Y-109888100D01*
X140353493Y-112403494D02*
X140353492Y-112403494D01*
X140229130Y-112251957D02*
X140136720Y-112079071D01*
X142994300Y-109088000D02*
X142042593Y-110039707D01*
D53*
X128826100Y-109416517D02*
X128982868Y-109481452D01*
X128982868Y-109481452D02*
X129151100Y-109503600D01*
D54*
X142042593Y-110039707D02*
X141918230Y-110191244D01*
D53*
X134271100Y-108233600D02*
X134271100Y-107753600D01*
X128691481Y-109313219D02*
X128826100Y-109416517D01*
X133001100Y-109503600D02*
X133001100Y-109503600D01*
X128501100Y-108853600D02*
X128523248Y-109021832D01*
D54*
X142994300Y-108821300D02*
X142994300Y-109088000D01*
D53*
X128588183Y-109178600D02*
X128691481Y-109313219D01*
D54*
X141825820Y-110364130D02*
X141749700Y-110746813D01*
X141749700Y-110746813D02*
X141749700Y-111221600D01*
D53*
X134194510Y-108667966D02*
X134271100Y-108233600D01*
X133221633Y-109484306D02*
X133435466Y-109427010D01*
X129151100Y-109503600D02*
X133001100Y-109503600D01*
X128501100Y-108853600D02*
X128501100Y-108853600D01*
X133001100Y-109503600D02*
X133221633Y-109484306D01*
X133435466Y-109427010D02*
X133636100Y-109333452D01*
X133973976Y-109049940D02*
X134100952Y-108868600D01*
X134100952Y-108868600D02*
X134194510Y-108667966D01*
D54*
X142042593Y-110039707D02*
X142042593Y-110039707D01*
D53*
X128523248Y-109021832D02*
X128588183Y-109178600D01*
D54*
X141749700Y-111221600D02*
X141701100Y-111296200D01*
X141918230Y-110191244D02*
X141825820Y-110364130D01*
D53*
X133636100Y-109333452D02*
X133817440Y-109206476D01*
X133817440Y-109206476D02*
X133973976Y-109049940D01*
D54*
X150652479Y-110719730D02*
X150728600Y-111102413D01*
X169486500Y-105798700D02*
X169664300Y-105976500D01*
X150560069Y-110546843D02*
X150652479Y-110719730D01*
D57*
X148793700Y-109803600D02*
X149801100Y-109803600D01*
X149801100Y-109803600D02*
X150001100Y-110003600D01*
D54*
X150435706Y-110395307D02*
X150560069Y-110546843D01*
X170642200Y-105976500D02*
X170651100Y-106003600D01*
X150435706Y-110395307D02*
X150435706Y-110395307D01*
X150106300Y-110065900D02*
X150435706Y-110395307D01*
X150728600Y-111102413D02*
X150728600Y-113177400D01*
X150106300Y-110065900D02*
X150001100Y-110003600D01*
X169664300Y-105976500D02*
X170642200Y-105976500D01*
D57*
X148793700Y-109003600D02*
X150001100Y-109003600D01*
D54*
X145750200Y-102687200D02*
X145701100Y-102711000D01*
X145918730Y-99345444D02*
X145826320Y-99518330D01*
X145750200Y-99901013D02*
X145750200Y-102687200D01*
X146639200Y-98064400D02*
X146651100Y-98003600D01*
X146043093Y-99193907D02*
X145918730Y-99345444D01*
X146639200Y-98597800D02*
X146043093Y-99193907D01*
X146043093Y-99193907D02*
X146043093Y-99193907D01*
X146639200Y-98064400D02*
X146639200Y-98597800D01*
X145826320Y-99518330D02*
X145750200Y-99901013D01*
X136033906Y-124886008D02*
X136185443Y-125010370D01*
X138580829Y-92717621D02*
X138256406Y-92934394D01*
X138963512Y-92641500D02*
X138963512Y-92641500D01*
X133623356Y-97540270D02*
X133450470Y-97632680D01*
X134339470Y-123299221D02*
X134663893Y-123515994D01*
X134151877Y-123242315D02*
X134339470Y-123299221D01*
X138256406Y-92934394D02*
X133774893Y-97415907D01*
X136358329Y-125102780D02*
X136741012Y-125178900D01*
X134663893Y-123515994D02*
X136033906Y-124886007D01*
X142105300Y-92641500D02*
X138963512Y-92641500D01*
X133956786Y-123223100D02*
X134151877Y-123242315D01*
X123791900Y-113563288D02*
X123791900Y-113563289D01*
X123811115Y-113758379D02*
X123868021Y-113945971D01*
X138816000Y-123756500D02*
X138015900Y-122956400D01*
X138816000Y-125001100D02*
X138816000Y-123756500D01*
X136185443Y-125010370D02*
X136358329Y-125102780D01*
X133774893Y-97415907D02*
X133623356Y-97540270D01*
X133450470Y-97632680D02*
X133067787Y-97708800D01*
X133956787Y-123223100D02*
X133956786Y-123223100D01*
X133067787Y-97708800D02*
X129570400Y-97708800D01*
X146550300Y-102687200D02*
X146550300Y-102153800D01*
X133037500Y-123223100D02*
X133956787Y-123223100D01*
X146550300Y-102687200D02*
X146501100Y-102711000D01*
X129570400Y-97708800D02*
X125747700Y-101531500D01*
X125747700Y-102953900D02*
X123791900Y-104909700D01*
X124084793Y-114270394D02*
X133037500Y-123223100D01*
X138768422Y-92660715D02*
X138580829Y-92717621D01*
X136741012Y-125178900D02*
X138638200Y-125178900D01*
X138963512Y-92641500D02*
X138768422Y-92660715D01*
X138638200Y-125178900D02*
X138816000Y-125001100D01*
X123868021Y-113945971D02*
X124084793Y-114270394D01*
X123791900Y-113563289D02*
X123811115Y-113758379D01*
X125747700Y-101531500D02*
X125747700Y-102953900D01*
X138015900Y-122956400D02*
X138015900Y-122689700D01*
X123791900Y-104909700D02*
X123791900Y-113563288D01*
X138015900Y-122689700D02*
X138001100Y-122653600D01*
X136033906Y-124886007D02*
X136033906Y-124886008D01*
X133774893Y-97415907D02*
X133774893Y-97415907D01*
X146550300Y-102153800D02*
X147883800Y-100820300D01*
X141242493Y-93289994D02*
X141305200Y-93352700D01*
X140535387Y-92997100D02*
X140535386Y-92997100D01*
X138434206Y-93289994D02*
X138434206Y-93289994D01*
X138758629Y-93073221D02*
X139141312Y-92997100D01*
X140918070Y-93073221D02*
X141242493Y-93289994D01*
X141305200Y-93352700D02*
X143794400Y-93352700D01*
X140535386Y-92997100D02*
X140730477Y-93016315D01*
X138434206Y-93289994D02*
X138585742Y-93165631D01*
X138585742Y-93165631D02*
X138758629Y-93073221D01*
X139141312Y-92997100D02*
X140535387Y-92997100D01*
X140730477Y-93016315D02*
X140918070Y-93073221D01*
X132326300Y-99309000D02*
X132415200Y-99309000D01*
X147350400Y-102687200D02*
X147301100Y-102711000D01*
X148506100Y-101531500D02*
X147350400Y-102687200D01*
X132415200Y-99309000D02*
X138434206Y-93289994D01*
D57*
X146316073Y-109976688D02*
X146501100Y-110253600D01*
X144781977Y-107022815D02*
X144969570Y-107079721D01*
X146251100Y-109650047D02*
X146251100Y-109650048D01*
D54*
X154001100Y-128003600D02*
X153001100Y-128003600D01*
D57*
X146267501Y-109816568D02*
X146316073Y-109976688D01*
X146793993Y-112296494D02*
X147001100Y-112503600D01*
X146082569Y-108112243D02*
X146174979Y-108285130D01*
X144969570Y-107079721D02*
X145293993Y-107296494D01*
X145958206Y-107960707D02*
X146082569Y-108112243D01*
X146174979Y-108285130D02*
X146251100Y-108667813D01*
X144586887Y-107003600D02*
X144586886Y-107003600D01*
X146501100Y-111589388D02*
X146501100Y-111589389D01*
X145293993Y-107296494D02*
X145958206Y-107960707D01*
X146501100Y-111296200D02*
X146501100Y-111589388D01*
X146501100Y-111589389D02*
X146520315Y-111784479D01*
D54*
X153001100Y-128003600D02*
X151501100Y-129503600D01*
D57*
X145958206Y-107960707D02*
X145958206Y-107960707D01*
X146501100Y-110253600D02*
X146501100Y-111296200D01*
X146251100Y-109650048D02*
X146267501Y-109816568D01*
X146577221Y-111972071D02*
X146793993Y-112296494D01*
X146520315Y-111784479D02*
X146577221Y-111972071D01*
X144586886Y-107003600D02*
X144781977Y-107022815D01*
X146251100Y-108667813D02*
X146251100Y-109650047D01*
X142001100Y-107003600D02*
X144586887Y-107003600D01*
X144719570Y-108079721D02*
X144336887Y-108003600D01*
X145043993Y-108296494D02*
X145043993Y-108296494D01*
D54*
X151001100Y-131503600D02*
X152501100Y-130003600D01*
D57*
X145043993Y-108296494D02*
X144892457Y-108172131D01*
X145674979Y-109035130D02*
X145458206Y-108710707D01*
X145731885Y-109222723D02*
X145674979Y-109035130D01*
X145751100Y-111246200D02*
X145701100Y-111296200D01*
X144336887Y-108003600D02*
X142001100Y-108003600D01*
D54*
X145777221Y-112172071D02*
X145993993Y-112496494D01*
D57*
X145751100Y-111246200D02*
X145751100Y-109417813D01*
X145458206Y-108710707D02*
X145043993Y-108296494D01*
D54*
X145701100Y-111789389D02*
X145720315Y-111984479D01*
D57*
X144892457Y-108172131D02*
X144719570Y-108079721D01*
D54*
X145993993Y-112496494D02*
X147001100Y-113503600D01*
D57*
X145751100Y-109417813D02*
X145751100Y-109417814D01*
D54*
X145720315Y-111984479D02*
X145777221Y-112172071D01*
D57*
X145751100Y-109417814D02*
X145731885Y-109222723D01*
D54*
X145701100Y-111789388D02*
X145701100Y-111789389D01*
X145701100Y-111296200D02*
X145701100Y-111789388D01*
X152501100Y-130003600D02*
X154001100Y-130003600D01*
X129806811Y-118155800D02*
X129611721Y-118136585D01*
X142935687Y-100642500D02*
X142430612Y-100642500D01*
X133748700Y-121000600D02*
X133570900Y-120822800D01*
X138460400Y-100998100D02*
X138042093Y-101416407D01*
X135882300Y-119964088D02*
X135882300Y-119964088D01*
X132859700Y-118155800D02*
X129806812Y-118155800D01*
X126370000Y-114718988D02*
X126370000Y-106065400D01*
X137749200Y-102123513D02*
X137749200Y-115488800D01*
X142430612Y-100642500D02*
X142235522Y-100661715D01*
X137749200Y-115488800D02*
X135882300Y-117355700D01*
X135882300Y-119964088D02*
X135863085Y-120159178D01*
X133494779Y-118898530D02*
X133278006Y-118574107D01*
X133278006Y-118574107D02*
X132859700Y-118155800D01*
X133570900Y-119281213D02*
X133570900Y-119281214D01*
X135863085Y-120159178D02*
X135806179Y-120346771D01*
X129099706Y-117862907D02*
X126662893Y-115426094D01*
X141660800Y-100998100D02*
X138460400Y-100998100D01*
X135589406Y-120671194D02*
X135260000Y-121000600D01*
X144861200Y-102153800D02*
X143642793Y-100935394D01*
X126370000Y-106065400D02*
X126351100Y-106003600D01*
X143318370Y-100718621D02*
X142935687Y-100642500D01*
X129424129Y-118079679D02*
X129099706Y-117862907D01*
X135260000Y-121000600D02*
X133748700Y-121000600D01*
X133570900Y-119281214D02*
X133551685Y-119086123D01*
X143642793Y-100935394D02*
X143642793Y-100935394D01*
X126446120Y-115101671D02*
X126370000Y-114718988D01*
X143642793Y-100935394D02*
X143491257Y-100811031D01*
X141723506Y-100935394D02*
X141660800Y-100998100D01*
X137825320Y-101740830D02*
X137749200Y-102123513D01*
X126662892Y-115426094D02*
X126538530Y-115274557D01*
X129611721Y-118136585D02*
X129424129Y-118079679D01*
X144861200Y-102687200D02*
X144861200Y-102153800D01*
X135806179Y-120346771D02*
X135589406Y-120671194D01*
X135882300Y-117355700D02*
X135882300Y-119964088D01*
X137917730Y-101567944D02*
X137825320Y-101740830D01*
X133570900Y-120822800D02*
X133570900Y-119281213D01*
X143491257Y-100811031D02*
X143318370Y-100718621D01*
X126538530Y-115274557D02*
X126446120Y-115101671D01*
X138042093Y-101416407D02*
X138042093Y-101416407D01*
X144861200Y-102687200D02*
X144901100Y-102711000D01*
X142430612Y-100642500D02*
X142430612Y-100642500D01*
X133551685Y-119086123D02*
X133494779Y-118898530D01*
X142047929Y-100718621D02*
X141723506Y-100935394D01*
X126662893Y-115426094D02*
X126662892Y-115426094D01*
X129806812Y-118155800D02*
X129806811Y-118155800D01*
X138042093Y-101416407D02*
X137917730Y-101567944D01*
X142235522Y-100661715D02*
X142047929Y-100718621D01*
X139375593Y-106269394D02*
X139375592Y-106269394D01*
X140149500Y-106598800D02*
X139705000Y-106598800D01*
X139705000Y-106598800D02*
X139375593Y-106269394D01*
X139082700Y-105562288D02*
X139082700Y-101887100D01*
X139082700Y-101887100D02*
X139081100Y-101843600D01*
X139251230Y-106117857D02*
X139158820Y-105944971D01*
X140149500Y-106598800D02*
X140208500Y-106603600D01*
X139375592Y-106269394D02*
X139251230Y-106117857D01*
X139158820Y-105944971D02*
X139082700Y-105562288D01*
D57*
X147301100Y-111296200D02*
X148501100Y-112496200D01*
X148501100Y-112496200D02*
X148501100Y-112503600D01*
X160001100Y-109003600D02*
X160001100Y-101003600D01*
D54*
X163001100Y-92353600D02*
X162501100Y-92853600D01*
X162501100Y-92853600D02*
X162501100Y-93503600D01*
D57*
X140669630Y-112144957D02*
X140577220Y-111972071D01*
X141424979Y-109972071D02*
X141208206Y-110296494D01*
X140577220Y-111035130D02*
X140501100Y-111417813D01*
X140501100Y-111589388D02*
X140501100Y-111417813D01*
X141501100Y-109589388D02*
X141501100Y-109589388D01*
X140577220Y-111972071D02*
X140501100Y-111589388D01*
X142001100Y-109003600D02*
X141561759Y-109442941D01*
X141561759Y-109442941D02*
X141501100Y-109589388D01*
X140793993Y-110710707D02*
X140793993Y-110710707D01*
X140793993Y-112296494D02*
X140793992Y-112296494D01*
D54*
X142501100Y-112903600D02*
X142576100Y-113078600D01*
D57*
X141257165Y-112609666D02*
X141001100Y-112503600D01*
X141501100Y-109589388D02*
X141481885Y-109784478D01*
X140793992Y-112296494D02*
X140669630Y-112144957D01*
X142576100Y-113928600D02*
X141257165Y-112609666D01*
X141001100Y-112503600D02*
X140793993Y-112296494D01*
X142576100Y-113928600D02*
X142651100Y-114003600D01*
X141481885Y-109784478D02*
X141424979Y-109972071D01*
D54*
X142576100Y-113078600D02*
X142576100Y-113928600D01*
D57*
X140669630Y-110862244D02*
X140577220Y-111035130D01*
X140793993Y-110710707D02*
X140669630Y-110862244D01*
X141208206Y-110296494D02*
X140793993Y-110710707D01*
X141561759Y-109442941D02*
X141561759Y-109442941D01*
X141257165Y-112609666D02*
X141257165Y-112609666D01*
D55*
X169134056Y-130082378D02*
X168673006Y-130112936D01*
D54*
X180874969Y-99612143D02*
X180967379Y-99785030D01*
D55*
X168109908Y-79388182D02*
X168559980Y-79436174D01*
X174536396Y-121828882D02*
X174178562Y-124953829D01*
X131021195Y-78852758D02*
X131081319Y-78408534D01*
X132192749Y-133438428D02*
X132019603Y-133024409D01*
X173504512Y-86104504D02*
X173352140Y-86902560D01*
D54*
X165611342Y-100455431D02*
X165784229Y-100363021D01*
D55*
X122969560Y-83461578D02*
X122802636Y-83864568D01*
D54*
X178643200Y-97353200D02*
X180750606Y-99460607D01*
D55*
X117305637Y-118591079D02*
X117035756Y-117848904D01*
D54*
X179345130Y-107168644D02*
X179252720Y-107341530D01*
D55*
X173524873Y-84342853D02*
X173578416Y-84782211D01*
X130400056Y-79902560D02*
X128173209Y-79902560D01*
X146462143Y-138173346D02*
X146043506Y-137990808D01*
X114671471Y-104180574D02*
X114802637Y-103764568D01*
D56*
X147001100Y-105003600D02*
X147001100Y-105753600D01*
D55*
X114577061Y-104606428D02*
X114671471Y-104180574D01*
X132233774Y-76013144D02*
X132543354Y-75688937D01*
D56*
X149418993Y-113335707D02*
X148601100Y-114153600D01*
D55*
X169003867Y-79524671D02*
X169437933Y-79652946D01*
D54*
X179176600Y-107724213D02*
X179176600Y-109710300D01*
D55*
X125673209Y-80572432D02*
X125305327Y-80806798D01*
X123670877Y-82360731D02*
X123405339Y-82706787D01*
X172128762Y-81631263D02*
X172427574Y-81957780D01*
X172427574Y-81957780D02*
X172696340Y-82309443D01*
X160220094Y-136069713D02*
X159766381Y-136071547D01*
X150731195Y-138416012D02*
X150267360Y-138481655D01*
X125145843Y-129704758D02*
X124786821Y-129406183D01*
D54*
X163974700Y-102064900D02*
X165459806Y-100579794D01*
X175561987Y-100286900D02*
X175757077Y-100267685D01*
D55*
X116762234Y-115616398D02*
X116830158Y-115167947D01*
D56*
X149692671Y-112433510D02*
X149711886Y-112628600D01*
X145686193Y-66796494D02*
X153484500Y-74594800D01*
D55*
X151186851Y-138307248D02*
X150731195Y-138416012D01*
D54*
X162819000Y-107665600D02*
X163974700Y-106509900D01*
D55*
X168559980Y-79436174D02*
X169003867Y-79524671D01*
X157596937Y-135475144D02*
X156326378Y-134788900D01*
X115405339Y-102606787D02*
X115965565Y-101939135D01*
X117666911Y-119369211D02*
X117305637Y-118591079D01*
X174006770Y-125799510D02*
X173866816Y-126208084D01*
X117035756Y-117848904D02*
X116900246Y-117416054D01*
D56*
X140208206Y-70796494D02*
X140208206Y-70796494D01*
D55*
X116749361Y-116522505D02*
X116735227Y-116069159D01*
X117169329Y-93970279D02*
X117188847Y-93520242D01*
X175836899Y-87758279D02*
X176236318Y-87915315D01*
X134031503Y-74704857D02*
X138001100Y-73003600D01*
X118768938Y-90129835D02*
X119094490Y-89837958D01*
X162843386Y-135310272D02*
X162047746Y-135654719D01*
X119815684Y-89344882D02*
X120205810Y-89147454D01*
X131707705Y-76738014D02*
X131954477Y-76363776D01*
X170472958Y-129738971D02*
X170037892Y-129894594D01*
X132923702Y-134564710D02*
X132646626Y-134211693D01*
D56*
X147001100Y-105753600D02*
X148793700Y-105753600D01*
D55*
X117487675Y-92206066D02*
X117584618Y-91947550D01*
X124786821Y-129406183D02*
X124159909Y-128715347D01*
X179526739Y-92559842D02*
X179594423Y-93029687D01*
X114969561Y-103361578D02*
X115170972Y-102974669D01*
D56*
X140501100Y-70089388D02*
X140501100Y-68417813D01*
D55*
X116938442Y-114727496D02*
X117086194Y-114298671D01*
X152057732Y-137964544D02*
X151630327Y-138156317D01*
X134714308Y-135886774D02*
X134311480Y-135688984D01*
X125531153Y-129968538D02*
X125145843Y-129704758D01*
X173302575Y-83486899D02*
X173432685Y-83909951D01*
X131731131Y-131713079D02*
X131675818Y-131038900D01*
D56*
X141708206Y-66796494D02*
X141708206Y-66796494D01*
D55*
X139517278Y-136548747D02*
X139092772Y-136656082D01*
D54*
X175944670Y-100210779D02*
X176269093Y-99994007D01*
D55*
X170646206Y-80264360D02*
X171006651Y-80538124D01*
D56*
X149418992Y-111921493D02*
X149543355Y-112073030D01*
D55*
X125305327Y-80806798D02*
X124637675Y-81367025D01*
X128173210Y-79902560D02*
X127737431Y-79921586D01*
X127728065Y-130696660D02*
X127728064Y-130696660D01*
D54*
X138015900Y-72816800D02*
X138001100Y-73003600D01*
X180750606Y-99460607D02*
X180750606Y-99460607D01*
D56*
X149692672Y-112823691D02*
X149635766Y-113011284D01*
D55*
X166602140Y-129854644D02*
X164929496Y-133165769D01*
D56*
X149711886Y-112628600D02*
X149692672Y-112823691D01*
D55*
X115965565Y-101939135D02*
X118151100Y-99753600D01*
D56*
X141001100Y-119853600D02*
X139501100Y-119853600D01*
X140424979Y-70472071D02*
X140501100Y-70089388D01*
D55*
X138660503Y-136725867D02*
X138223787Y-136757564D01*
X131081319Y-78408534D02*
X131180987Y-77971480D01*
D56*
X140577221Y-68035130D02*
X140793993Y-67710707D01*
X140208500Y-105003600D02*
X147001100Y-105003600D01*
X148793700Y-105753600D02*
X148793700Y-105803600D01*
D55*
X158430299Y-135831859D02*
X157596937Y-135475144D01*
X120205810Y-89147454D02*
X120611693Y-88984864D01*
X117494924Y-113489884D02*
X118042921Y-112768154D01*
X114817340Y-108626269D02*
X114679817Y-108201153D01*
X164929496Y-133165769D02*
X164717229Y-133544212D01*
X134311480Y-135688984D02*
X133928009Y-135455871D01*
X172973906Y-127677535D02*
X172336103Y-128406454D01*
X123405339Y-82706787D02*
X123170972Y-83074669D01*
X144028109Y-136183641D02*
X143501100Y-135353600D01*
X117272198Y-113884999D02*
X117494924Y-113489884D01*
X136499400Y-136503035D02*
X135133250Y-136047650D01*
X164929496Y-133165769D02*
X164929496Y-133165769D01*
D54*
X179252720Y-107341530D02*
X179176600Y-107724213D01*
D55*
X131495445Y-77132849D02*
X131707705Y-76738014D01*
X163895944Y-134549936D02*
X163567562Y-134833558D01*
X172128762Y-81631263D02*
X172128762Y-81631263D01*
D54*
X181043500Y-105443100D02*
X179469493Y-107017107D01*
D56*
X149635766Y-112245917D02*
X149692671Y-112433510D01*
D55*
X126810235Y-130529738D02*
X126366994Y-130382834D01*
X137350416Y-136706023D02*
X136920460Y-136623178D01*
X169590317Y-130009390D02*
X169134056Y-130082378D01*
X126463109Y-80204096D02*
X126060118Y-80371020D01*
X114501100Y-105474669D02*
X114520126Y-105038890D01*
D56*
X141708206Y-66796494D02*
X141859742Y-66672131D01*
D55*
X120611693Y-88984864D02*
X121030228Y-88858354D01*
D54*
X180750606Y-99460607D02*
X180874969Y-99612143D01*
D55*
X114679817Y-108201153D02*
X114580795Y-107765457D01*
X122501100Y-85574669D02*
X122501100Y-88213622D01*
X118758172Y-120685081D02*
X118443902Y-120392546D01*
X126366994Y-130382834D02*
X125939390Y-130195222D01*
X119094490Y-89837958D02*
X119444297Y-89575638D01*
X123046405Y-126397328D02*
X122980201Y-125951338D01*
D56*
X140520315Y-68222723D02*
X140577221Y-68035130D01*
D55*
X179527888Y-94447934D02*
X179261884Y-95358182D01*
X118200351Y-90793124D02*
X118470130Y-90449037D01*
X168673006Y-130112936D02*
X167752293Y-130046079D01*
X123400056Y-123104644D02*
X119834478Y-121386863D01*
X118470130Y-90449037D02*
X118768938Y-90129835D01*
D54*
X175757077Y-100267685D02*
X175944670Y-100210779D01*
X179469493Y-107017107D02*
X179345130Y-107168644D01*
D55*
X116804518Y-116972705D02*
X116749361Y-116522505D01*
X117251871Y-94866491D02*
X117190394Y-94420246D01*
D56*
X144979086Y-66503600D02*
X145174177Y-66522815D01*
D55*
X115726056Y-110154874D02*
X115448444Y-109804778D01*
D56*
X148801100Y-107403600D02*
X148793700Y-107403600D01*
X148601100Y-114153600D02*
X148501100Y-114153600D01*
D55*
X117251871Y-94866491D02*
X117251871Y-94866491D01*
X123965565Y-82039135D02*
X123965565Y-82039135D01*
X172932954Y-82683497D02*
X173135562Y-83077010D01*
X115170972Y-102974669D02*
X115405339Y-102606787D01*
X169437933Y-79652946D02*
X169858620Y-79819950D01*
X114580795Y-107765457D02*
X114501100Y-106876300D01*
X132501100Y-80003600D02*
X131703184Y-80003600D01*
X123954078Y-128440907D02*
X123954078Y-128440907D01*
D56*
X140501100Y-68417813D02*
X140501100Y-68417813D01*
D55*
X148249174Y-138503600D02*
X147792948Y-138482742D01*
X144585437Y-136906105D02*
X144028109Y-136183641D01*
D54*
X178643200Y-97353200D02*
X178536396Y-97178322D01*
D55*
X143501100Y-135353600D02*
X139517278Y-136548747D01*
D56*
X142032629Y-66579721D02*
X142415312Y-66503600D01*
D55*
X173352140Y-86902560D02*
X175836900Y-87758279D01*
D56*
X141001100Y-119853600D02*
X141201100Y-119853600D01*
X136812500Y-119602400D02*
X139249900Y-119602400D01*
D55*
X124159909Y-128715347D02*
X123954078Y-128440907D01*
D56*
X138001100Y-73003600D02*
X140208206Y-70796494D01*
D55*
X115448444Y-109804778D02*
X115203194Y-109431296D01*
X179595000Y-93978007D02*
X179527888Y-94447934D01*
X145264777Y-137515256D02*
X144911183Y-137226209D01*
X123170972Y-83074669D02*
X122969560Y-83461578D01*
D56*
X140793993Y-67710707D02*
X141708206Y-66796494D01*
D55*
X165326378Y-79218304D02*
X168109909Y-79388182D01*
X123120284Y-124162463D02*
X123400056Y-123104644D01*
X123152517Y-126835542D02*
X123046405Y-126397328D01*
X114501100Y-105474669D02*
X114501100Y-105474669D01*
X146043506Y-137990808D02*
X145643271Y-137770833D01*
X158867784Y-135952128D02*
X158430299Y-135831859D01*
X122577061Y-84706428D02*
X122501100Y-85574669D01*
X179617245Y-93503833D02*
X179595000Y-93978007D01*
X122802636Y-83864568D02*
X122671470Y-84280574D01*
X127304969Y-79978521D02*
X126879114Y-80072930D01*
X163567562Y-134833558D02*
X163215826Y-135087641D01*
D56*
X144351100Y-116003600D02*
X146651100Y-116003600D01*
X142501100Y-121153600D02*
X142801100Y-121453600D01*
X147001100Y-107503600D02*
X147001100Y-107403600D01*
D55*
X116735227Y-116069159D02*
X116762234Y-115616398D01*
X117584618Y-91947550D02*
X117755896Y-91545256D01*
X173432685Y-83909951D02*
X173524873Y-84342853D01*
X128173209Y-79902560D02*
X128173210Y-79902560D01*
X161554196Y-135819235D02*
X161554195Y-135819235D01*
X138001100Y-73003600D02*
X140675818Y-74968304D01*
X179261884Y-95358182D02*
X178536396Y-97178322D01*
D56*
X147001100Y-107403600D02*
X148793700Y-107403600D01*
X141859742Y-66672131D02*
X142032629Y-66579721D01*
D55*
X132402319Y-133835255D02*
X132192749Y-133438428D01*
X122715800Y-88428322D02*
X122501100Y-88213622D01*
X118215800Y-112578882D02*
X116033815Y-110478791D01*
X152849493Y-137465550D02*
X152465313Y-137733613D01*
D54*
X175561987Y-100286900D02*
X175561987Y-100286900D01*
D55*
X122969339Y-125050565D02*
X123120284Y-124162463D01*
D56*
X144351100Y-116003600D02*
X144351100Y-116503600D01*
D55*
X172016090Y-128739761D02*
X171666675Y-129042102D01*
X148249175Y-138503600D02*
X148249174Y-138503600D01*
X174178562Y-124953829D02*
X174110945Y-125380382D01*
D56*
X147001100Y-107403600D02*
X147001100Y-105753600D01*
D55*
X132019603Y-133024409D02*
X131884277Y-132596532D01*
X122671470Y-84280574D02*
X122577061Y-84706428D01*
X133231314Y-134891461D02*
X132923702Y-134564710D01*
X171006651Y-80538124D02*
X171340862Y-80843363D01*
X117896252Y-119732177D02*
X117666911Y-119369211D01*
X135133248Y-136047649D02*
X134714308Y-135886774D01*
X117190394Y-94420246D02*
X117169329Y-93970279D01*
X122954443Y-125501196D02*
X122969339Y-125050565D01*
X173692125Y-126603057D02*
X173484002Y-126981481D01*
X123954078Y-128440907D02*
X123700090Y-128068374D01*
D56*
X145361770Y-66579721D02*
X145686193Y-66796494D01*
D55*
X116033814Y-110478790D02*
X115726056Y-110154874D01*
X147340529Y-138420343D02*
X146895690Y-138316924D01*
X117248789Y-93073788D02*
X117487675Y-92206066D01*
X170037892Y-129894594D02*
X169590317Y-130009390D01*
X117584618Y-91947550D02*
X117584618Y-91947550D01*
X116830158Y-115167947D02*
X116938442Y-114727496D01*
X117961665Y-91159464D02*
X118200351Y-90793124D01*
X131001100Y-79300582D02*
X131021195Y-78852758D01*
D56*
X144351100Y-116503600D02*
X141001100Y-119853600D01*
D55*
X125939390Y-130195222D02*
X125531153Y-129968538D01*
X169858620Y-79819950D02*
X170262481Y-80024313D01*
X124637675Y-81367025D02*
X123965565Y-82039135D01*
X174110945Y-125380382D02*
X174006770Y-125799510D01*
X179259628Y-91649918D02*
X179414805Y-92098533D01*
X162047746Y-135654719D02*
X161554196Y-135819235D01*
X114501100Y-106876300D02*
X114501100Y-105474669D01*
X131675818Y-131038900D02*
X127728065Y-130696660D01*
X176236318Y-87915315D02*
X176620799Y-88106025D01*
D56*
X145174177Y-66522815D02*
X145361770Y-66579721D01*
D55*
X114992264Y-109037411D02*
X114817340Y-108626269D01*
D54*
X181043500Y-100167713D02*
X181043500Y-105443100D01*
X165784229Y-100363021D02*
X166166912Y-100286900D01*
X163974700Y-106509900D02*
X163974700Y-102064900D01*
D55*
X118042921Y-112768154D02*
X118215800Y-112578882D01*
D54*
X165459806Y-100579794D02*
X165459806Y-100579794D01*
D55*
X163215826Y-135087641D02*
X162843386Y-135310272D01*
D54*
X176269093Y-99994007D02*
X178732100Y-97531000D01*
D56*
X145501100Y-121453600D02*
X142801100Y-121453600D01*
D55*
X147792948Y-138482742D02*
X147340529Y-138420343D01*
X152849493Y-137465550D02*
X152849493Y-137465550D01*
X131001100Y-79301516D02*
X130400056Y-79902560D01*
X177656958Y-88864976D02*
X177954765Y-89174018D01*
X131001100Y-79301516D02*
X131001100Y-79300582D01*
X119444297Y-89575638D02*
X119815684Y-89344882D01*
D54*
X178732100Y-97531000D02*
X178536396Y-97178322D01*
D55*
X122980201Y-125951338D02*
X122954443Y-125501196D01*
X176987509Y-88329005D02*
X177333745Y-88582612D01*
X116033815Y-110478791D02*
X116033814Y-110478790D01*
X127737431Y-79921586D02*
X127304969Y-79978521D01*
X131884277Y-132596532D02*
X131731131Y-131713079D01*
X119834478Y-121386863D02*
X119456033Y-121184078D01*
D56*
X147001100Y-107503600D02*
X147001100Y-109503600D01*
D55*
X178465590Y-89862847D02*
X178851193Y-90628835D01*
X132543354Y-75688937D02*
X132880727Y-75393760D01*
X123480693Y-127674475D02*
X123297673Y-127262414D01*
X131703184Y-80003600D02*
X131001100Y-79301516D01*
D56*
X140501100Y-68417813D02*
X140520315Y-68222723D01*
D55*
X152465313Y-137733613D02*
X152057732Y-137964544D01*
X178851193Y-90628835D02*
X179259628Y-91649919D01*
X164472950Y-133902826D02*
X164198500Y-134238911D01*
X176620799Y-88106025D02*
X176987509Y-88329005D01*
D54*
X179176600Y-109710300D02*
X179101100Y-109753600D01*
D55*
X135133250Y-136047650D02*
X135133248Y-136047649D01*
X172336103Y-128406454D02*
X172016090Y-128739761D01*
X133928009Y-135455871D02*
X133566984Y-135189315D01*
X132880727Y-75393760D02*
X133243182Y-75129986D01*
X164717229Y-133544212D02*
X164472950Y-133902826D01*
X175836900Y-87758279D02*
X175836899Y-87758279D01*
X173484002Y-126981481D02*
X172973906Y-127677535D01*
D56*
X147001100Y-109503600D02*
X149418993Y-111921494D01*
D55*
X117086194Y-114298671D02*
X117272198Y-113884999D01*
X123700090Y-128068374D02*
X123480693Y-127674475D01*
X138223787Y-136757564D02*
X137785972Y-136750933D01*
X116900246Y-117416054D02*
X116804518Y-116972705D01*
X118155888Y-120074129D02*
X117896252Y-119732177D01*
X139092772Y-136656082D02*
X138660503Y-136725867D01*
D54*
X179469493Y-107017107D02*
X179469493Y-107017107D01*
D55*
X133566984Y-135189315D02*
X133231314Y-134891461D01*
X170262481Y-80024313D02*
X170646206Y-80264360D01*
D56*
X148501100Y-114153600D02*
X146651100Y-116003600D01*
D55*
X114802637Y-103764568D02*
X114969561Y-103361578D01*
X173578416Y-84782211D02*
X173592895Y-85224582D01*
X161554195Y-135819235D02*
X161117696Y-135943036D01*
X117035756Y-117848904D02*
X117035756Y-117848904D01*
D56*
X149635766Y-113011284D02*
X149418993Y-113335707D01*
D55*
X132646626Y-134211693D02*
X132402319Y-133835255D01*
X131954477Y-76363776D02*
X132233774Y-76013144D01*
X167752293Y-130046079D02*
X166602140Y-129854644D01*
X156326378Y-134788900D02*
X152849493Y-137465550D01*
X161117696Y-135943036D02*
X160671772Y-136026758D01*
X139517278Y-136548747D02*
X139517278Y-136548747D01*
X136920460Y-136623178D02*
X136499400Y-136503035D01*
D54*
X165459806Y-100579794D02*
X165611342Y-100455431D01*
D55*
X118443902Y-120392546D02*
X118155888Y-120074129D01*
D56*
X142415312Y-66503600D02*
X144979087Y-66503600D01*
D54*
X180967379Y-99785030D02*
X181043500Y-100167713D01*
D55*
X173135562Y-83077010D02*
X173302575Y-83486899D01*
D56*
X140332569Y-70644958D02*
X140424979Y-70472071D01*
D55*
X137785972Y-136750933D02*
X137350416Y-136706023D01*
X160671772Y-136026758D02*
X160220094Y-136069713D01*
X127265248Y-130634651D02*
X126810235Y-130529738D01*
X173866816Y-126208084D02*
X173692125Y-126603057D01*
X117755896Y-91545256D02*
X117961665Y-91159464D01*
X171340862Y-80843363D02*
X172128762Y-81631263D01*
X179414805Y-92098533D02*
X179526739Y-92559842D01*
X164198500Y-134238911D02*
X163895944Y-134549936D01*
X168109909Y-79388182D02*
X168109908Y-79388182D01*
X121030228Y-88858354D02*
X122715800Y-88428322D01*
X179259628Y-91649919D02*
X179259628Y-91649918D01*
X126879114Y-80072930D02*
X126463109Y-80204096D01*
X177954765Y-89174018D02*
X178224973Y-89507461D01*
X144911183Y-137226209D02*
X144585437Y-136906105D01*
D54*
X162819000Y-107665600D02*
X162731100Y-107753600D01*
D56*
X139249900Y-119602400D02*
X139501100Y-119853600D01*
D55*
X119456033Y-121184078D02*
X119096380Y-120949575D01*
X131180987Y-77971480D02*
X131319400Y-77545109D01*
X127728064Y-130696660D02*
X127265248Y-130634651D01*
X117188847Y-93520242D02*
X117248789Y-93073788D01*
X145643271Y-137770833D02*
X145264777Y-137515256D01*
X172336103Y-128406454D02*
X172336103Y-128406454D01*
X179594423Y-93029687D02*
X179617245Y-93503833D01*
X174178562Y-124953829D02*
X174178562Y-124953829D01*
X159314371Y-136032243D02*
X158867784Y-135952128D01*
X177333745Y-88582612D02*
X177656958Y-88864976D01*
X118151100Y-99753600D02*
X117251871Y-94866491D01*
X178224973Y-89507461D02*
X178465590Y-89862847D01*
X173592895Y-85224582D02*
X173568196Y-85666501D01*
X172696340Y-82309443D02*
X172932954Y-82683497D01*
X115203194Y-109431296D02*
X114992264Y-109037411D01*
X171666675Y-129042102D02*
X171290842Y-129310897D01*
X123965565Y-82039135D02*
X123670877Y-82360731D01*
X150267360Y-138481655D02*
X149799418Y-138503600D01*
D56*
X144979087Y-66503600D02*
X144979086Y-66503600D01*
D55*
X119096380Y-120949575D02*
X118758172Y-120685081D01*
X131001100Y-79300582D02*
X131001100Y-79300582D01*
X146895690Y-138316924D02*
X146462143Y-138173346D01*
X159766381Y-136071547D02*
X159314371Y-136032243D01*
X133243182Y-75129986D02*
X134031503Y-74704857D01*
D56*
X141201100Y-119853600D02*
X142501100Y-121153600D01*
D55*
X149799418Y-138503600D02*
X148249175Y-138503600D01*
D56*
X140208206Y-70796494D02*
X140332569Y-70644958D01*
D55*
X173568196Y-85666501D02*
X173504512Y-86104504D01*
D56*
X149418993Y-111921494D02*
X149418992Y-111921493D01*
D55*
X114520126Y-105038890D02*
X114577061Y-104606428D01*
X170891800Y-129543850D02*
X170472958Y-129738971D01*
X131319400Y-77545109D02*
X131495445Y-77132849D01*
D54*
X153484500Y-74594800D02*
X153501100Y-74653600D01*
D55*
X171290842Y-129310897D02*
X170891800Y-129543850D01*
X123297673Y-127262414D02*
X123152517Y-126835542D01*
X126060118Y-80371020D02*
X125673209Y-80572432D01*
X151630327Y-138156317D02*
X151186851Y-138307248D01*
X119834478Y-121386863D02*
X119834478Y-121386863D01*
D56*
X149543355Y-112073030D02*
X149635766Y-112245917D01*
D55*
X163436862Y-117322430D02*
X163622715Y-117421770D01*
X163273960Y-117188740D02*
X163436862Y-117322430D01*
X166001100Y-118003600D02*
X165501100Y-118503600D01*
X162979756Y-116638322D02*
X163040930Y-116839985D01*
X165501100Y-118503600D02*
X165481885Y-118308510D01*
X172501100Y-113003600D02*
X175001100Y-110503600D01*
X175001100Y-110503600D02*
X175501100Y-110503600D01*
X162959100Y-116428600D02*
X162959100Y-116428600D01*
X164883783Y-117579720D02*
X164501100Y-117503600D01*
X183807725Y-120398960D02*
X184665484Y-118813844D01*
X165332570Y-117948030D02*
X165208207Y-117796493D01*
X182836712Y-122193360D02*
X183807725Y-120398960D01*
X165481885Y-118308510D02*
X165424980Y-118120917D01*
X170616100Y-112618600D02*
X171001100Y-113003600D01*
X165056670Y-117672130D02*
X164883783Y-117579720D01*
X165424980Y-118120917D02*
X165332570Y-117948030D01*
X162959100Y-116428600D02*
X162979756Y-116638322D01*
X165208207Y-117796493D02*
X165056670Y-117672130D01*
X171001100Y-113003600D02*
X172501100Y-113003600D01*
X165501100Y-118503600D02*
X165501100Y-119153600D01*
X163140270Y-117025838D02*
X163273960Y-117188740D01*
X165501100Y-118503600D02*
X165501100Y-118503600D01*
X164034100Y-117503600D02*
X164501100Y-117503600D01*
X163040930Y-116839985D02*
X163140270Y-117025838D01*
X167001100Y-118003600D02*
X166001100Y-118003600D01*
X168383100Y-112618600D02*
X170616100Y-112618600D01*
X163622715Y-117421770D02*
X164034100Y-117503600D01*
X161020315Y-117284479D02*
X161077221Y-117472071D01*
X161169630Y-114362244D02*
X161077220Y-114535130D01*
X162651100Y-119153600D02*
X163001100Y-119153600D01*
X161835222Y-113907815D02*
X161647629Y-113964721D01*
X162959100Y-113888600D02*
X162030312Y-113888600D01*
X162030312Y-113888600D02*
X161835222Y-113907815D01*
X161077221Y-117472071D02*
X161293993Y-117796494D01*
X161323206Y-114181494D02*
X161293993Y-114210707D01*
X161293993Y-117796494D02*
X162651100Y-119153600D01*
X161077220Y-114535130D02*
X161001100Y-114917813D01*
X161001100Y-117089388D02*
X161001100Y-117089389D01*
X161293993Y-114210707D02*
X161169630Y-114362244D01*
X161647629Y-113964721D02*
X161323206Y-114181494D01*
X161293993Y-114210707D02*
X161293993Y-114210707D01*
X161001100Y-117089389D02*
X161020315Y-117284479D01*
X162030312Y-113888600D02*
X162030312Y-113888600D01*
X161001100Y-114917813D02*
X161001100Y-117089388D01*
X182165484Y-123813844D02*
X180425818Y-123038900D01*
X185336712Y-117193360D02*
X183326378Y-116218304D01*
D54*
X160539129Y-124188221D02*
X160921812Y-124112100D01*
X173931500Y-121000600D02*
X174109300Y-120822800D01*
X171735193Y-123819207D02*
X173575900Y-121978500D01*
X173664800Y-121622900D02*
X173753700Y-121534000D01*
X171028087Y-124112100D02*
X171028087Y-124112100D01*
X180332300Y-122067400D02*
X180421200Y-122156300D01*
X182475169Y-121230858D02*
X182567579Y-121057971D01*
X180687900Y-122245200D02*
X180776800Y-122245200D01*
X156977793Y-127641907D02*
X160214706Y-124404994D01*
X156270687Y-127934800D02*
X156465777Y-127915585D01*
X168383100Y-113888600D02*
X168153000Y-113888600D01*
X155440300Y-127934800D02*
X156270687Y-127934800D01*
X181221300Y-122423000D02*
X181310200Y-122511900D01*
X171223177Y-124092885D02*
X171410770Y-124035979D01*
X173753700Y-121445100D02*
X173842600Y-121356200D01*
X173931500Y-121178400D02*
X173931500Y-121000600D01*
X156653370Y-127858679D02*
X156977793Y-127641907D01*
X174109300Y-120822800D02*
X178584587Y-120822800D01*
X160214706Y-124404994D02*
X160214706Y-124404994D01*
X167164315Y-112633216D02*
X166819500Y-112288400D01*
X181310200Y-122511900D02*
X181399100Y-122511900D01*
X160366242Y-124280631D02*
X160539129Y-124188221D01*
X167352900Y-113088501D02*
X167330961Y-112921855D01*
X180865700Y-122334100D02*
X180954600Y-122334100D01*
X182350806Y-121382394D02*
X182350806Y-121382394D01*
X180954600Y-122334100D02*
X181043500Y-122423000D01*
X178967270Y-120898921D02*
X179291693Y-121115694D01*
X171028087Y-124112100D02*
X171223177Y-124092885D01*
X182643700Y-120675288D02*
X182643700Y-117800200D01*
X182567579Y-121057971D02*
X182643700Y-120675288D01*
X180243400Y-122067400D02*
X180332300Y-122067400D01*
X173575900Y-121978500D02*
X173575900Y-121889600D01*
X173842600Y-121356200D02*
X173842600Y-121267300D01*
X156270687Y-127934800D02*
X156270687Y-127934800D01*
X173842600Y-121267300D02*
X173931500Y-121178400D01*
X181791525Y-121941675D02*
X182350806Y-121382394D01*
X171410770Y-124035979D02*
X171735193Y-123819207D01*
X167352900Y-113088500D02*
X167352900Y-113088501D01*
X179291693Y-121115694D02*
X180243400Y-122067400D01*
X178584586Y-120822800D02*
X178779677Y-120842015D01*
X167266638Y-112766566D02*
X167164315Y-112633216D01*
X168153000Y-113888600D02*
X167352900Y-113088500D01*
X178779677Y-120842015D02*
X178967270Y-120898921D01*
X181665800Y-122245200D02*
X181665800Y-122245200D01*
X180776800Y-122245200D02*
X180865700Y-122334100D01*
X181680427Y-122134102D02*
X181723309Y-122030576D01*
X180599000Y-122156300D02*
X180687900Y-122245200D01*
X181665800Y-122245200D02*
X181680427Y-122134102D01*
X180421200Y-122156300D02*
X180599000Y-122156300D01*
X173753700Y-121534000D02*
X173753700Y-121445100D01*
X182350806Y-121382394D02*
X182475169Y-121230858D01*
X181399100Y-122511900D02*
X181665800Y-122245200D01*
X173575900Y-121889600D02*
X173664800Y-121800700D01*
X173664800Y-121800700D02*
X173664800Y-121622900D01*
X181723309Y-122030576D02*
X181791525Y-121941675D01*
X160921812Y-124112100D02*
X171028087Y-124112100D01*
X167330961Y-112921855D02*
X167266638Y-112766566D01*
X182643700Y-117800200D02*
X182675818Y-117788900D01*
X156465777Y-127915585D02*
X156653370Y-127858679D01*
X181043500Y-122423000D02*
X181221300Y-122423000D01*
X178584587Y-120822800D02*
X178584586Y-120822800D01*
X160214706Y-124404994D02*
X160366242Y-124280631D01*
X167060006Y-117151707D02*
X166997300Y-117089000D01*
D57*
X181076378Y-121468304D02*
X179293993Y-119685919D01*
X179293992Y-119685919D02*
X179169630Y-119534382D01*
X179293993Y-119685919D02*
X179293992Y-119685919D01*
X174532629Y-114579721D02*
X174208206Y-114796494D01*
D54*
X167384429Y-117368479D02*
X167060006Y-117151707D01*
D57*
X177293993Y-114796494D02*
X177142457Y-114672131D01*
X179169630Y-119534382D02*
X179077220Y-119361496D01*
X178924979Y-116535130D02*
X178708206Y-116210707D01*
D54*
X172953600Y-116111100D02*
X173001100Y-116003600D01*
D57*
X179001100Y-116917814D02*
X178981885Y-116722723D01*
D54*
X167767111Y-117444600D02*
X167572021Y-117425385D01*
D57*
X179077220Y-119361496D02*
X179001100Y-118978813D01*
D54*
X171912993Y-117151707D02*
X171912993Y-117151707D01*
X171205887Y-117444600D02*
X167767112Y-117444600D01*
D57*
X178708206Y-116210707D02*
X177293993Y-114796494D01*
D54*
X168775300Y-115133200D02*
X168419700Y-115133200D01*
D57*
X174208206Y-114796494D02*
X173001100Y-116003600D01*
X178981885Y-116722723D02*
X178924979Y-116535130D01*
X179001100Y-116917813D02*
X179001100Y-116917814D01*
X174915312Y-114503600D02*
X174915312Y-114503600D01*
X176586887Y-114503600D02*
X174915312Y-114503600D01*
X177142457Y-114672131D02*
X176969570Y-114579721D01*
X176969570Y-114579721D02*
X176586887Y-114503600D01*
D54*
X167767112Y-117444600D02*
X167767111Y-117444600D01*
X166997300Y-117089000D02*
X166730600Y-117089000D01*
X168419700Y-115133200D02*
X168383100Y-115158600D01*
X172953600Y-116111100D02*
X171912993Y-117151707D01*
X169753200Y-114155300D02*
X168775300Y-115133200D01*
X171588570Y-117368480D02*
X171205887Y-117444600D01*
D57*
X177293993Y-114796494D02*
X177293993Y-114796494D01*
X174720222Y-114522815D02*
X174532629Y-114579721D01*
D54*
X167572021Y-117425385D02*
X167384429Y-117368479D01*
X171912993Y-117151707D02*
X171761456Y-117276070D01*
D57*
X174915312Y-114503600D02*
X174720222Y-114522815D01*
D54*
X171761456Y-117276070D02*
X171588570Y-117368480D01*
D57*
X179001100Y-118978813D02*
X179001100Y-116917813D01*
D58*
X158351100Y-83003600D02*
X158351100Y-83503600D01*
X155708207Y-68696493D02*
X155832570Y-68848030D01*
D56*
X183945530Y-103172130D02*
X183793993Y-103296493D01*
X183208206Y-109796494D02*
X181293993Y-111710707D01*
X185501100Y-103003600D02*
X184501100Y-103003600D01*
X184306010Y-103022815D02*
X184118417Y-103079720D01*
D58*
X158182570Y-82448030D02*
X158274980Y-82620917D01*
D55*
X161151100Y-95003600D02*
X161001100Y-95153600D01*
D56*
X174708206Y-112296494D02*
X174859742Y-112172131D01*
X183793993Y-103296493D02*
X183669630Y-103448030D01*
D58*
X159332569Y-84512243D02*
X159424979Y-84685130D01*
X156293993Y-81710707D02*
X156445530Y-81835070D01*
X156169630Y-81559170D02*
X156293993Y-81710707D01*
D56*
X184501100Y-103003600D02*
X184306010Y-103022815D01*
X184118417Y-103079720D02*
X183945530Y-103172130D01*
D58*
X155001100Y-68403600D02*
X155196190Y-68422815D01*
X155196190Y-68422815D02*
X155383783Y-68479720D01*
D56*
X170868993Y-116135707D02*
X174708206Y-112296494D01*
D58*
X156445530Y-81835070D02*
X156618417Y-81927480D01*
X156077220Y-81386283D02*
X156169630Y-81559170D01*
X158058207Y-82296493D02*
X158182570Y-82448030D01*
X158351100Y-83503600D02*
X159208206Y-84360707D01*
D56*
X183424979Y-109472071D02*
X183208206Y-109796494D01*
D58*
X157351100Y-82003600D02*
X157546190Y-82022815D01*
D56*
X184501100Y-103003600D02*
X184501100Y-103003600D01*
X183481885Y-109284478D02*
X183424979Y-109472071D01*
D58*
X156020315Y-81198690D02*
X156077220Y-81386283D01*
D56*
X183501100Y-109089388D02*
X183501100Y-109089388D01*
D58*
X153471100Y-68403600D02*
X155001100Y-68403600D01*
X157001100Y-82003600D02*
X157351100Y-82003600D01*
X156001100Y-69403600D02*
X156001100Y-81003600D01*
D56*
X170161887Y-116428600D02*
X170356977Y-116409385D01*
D58*
X159424979Y-84685130D02*
X159501100Y-85067813D01*
D56*
X183501100Y-104003600D02*
X183501100Y-109089388D01*
X170161887Y-116428600D02*
X170161887Y-116428600D01*
D58*
X159501100Y-85067813D02*
X159501100Y-87503600D01*
X155924980Y-69020917D02*
X156001100Y-69403600D01*
X157351100Y-82003600D02*
X157351100Y-82003600D01*
X157733783Y-82079720D02*
X157906670Y-82172130D01*
D56*
X180586887Y-112003600D02*
X175415312Y-112003600D01*
D58*
X156618417Y-81927480D02*
X157001100Y-82003600D01*
D56*
X180969570Y-111927480D02*
X180586887Y-112003600D01*
X175032629Y-112079721D02*
X175415312Y-112003600D01*
X183577220Y-103620917D02*
X183501100Y-104003600D01*
X183669630Y-103448030D02*
X183577220Y-103620917D01*
X170356977Y-116409385D02*
X170544570Y-116352479D01*
D58*
X155001100Y-68403600D02*
X155001100Y-68403600D01*
D55*
X161151100Y-95003600D02*
X163001100Y-95003600D01*
D58*
X155556670Y-68572130D02*
X155708207Y-68696493D01*
X156001100Y-81003600D02*
X156001100Y-81003600D01*
X155832570Y-68848030D02*
X155924980Y-69020917D01*
D56*
X168383100Y-116428600D02*
X170161887Y-116428600D01*
X183501100Y-109089388D02*
X183481885Y-109284478D01*
X181142456Y-111835070D02*
X180969570Y-111927480D01*
D58*
X159208206Y-84360707D02*
X159208206Y-84360707D01*
X156001100Y-81003600D02*
X156020315Y-81198690D01*
D56*
X181293993Y-111710707D02*
X181142456Y-111835070D01*
X170544570Y-116352479D02*
X170868993Y-116135707D01*
D58*
X157546190Y-82022815D02*
X157733783Y-82079720D01*
X159501100Y-87503600D02*
X161151100Y-89153600D01*
X158274980Y-82620917D02*
X158351100Y-83003600D01*
D56*
X174859742Y-112172131D02*
X175032629Y-112079721D01*
X174708206Y-112296494D02*
X174708206Y-112296494D01*
D58*
X155383783Y-68479720D02*
X155556670Y-68572130D01*
X157906670Y-82172130D02*
X158058207Y-82296493D01*
X161151100Y-89153600D02*
X161151100Y-95003600D01*
D56*
X181293993Y-111710707D02*
X181293993Y-111710707D01*
D58*
X159208206Y-84360707D02*
X159332569Y-84512243D01*
D55*
X155945530Y-96172130D02*
X155793993Y-96296493D01*
X157361100Y-95548696D02*
X157293993Y-95710707D01*
X155577221Y-98822071D02*
X155793993Y-99146494D01*
X157361100Y-95548697D02*
X157361100Y-95548696D01*
X155577220Y-96620917D02*
X155501100Y-97003600D01*
X155501100Y-97003600D02*
X155501100Y-98439388D01*
X156306010Y-96022815D02*
X156118417Y-96079720D01*
X155793993Y-96296493D02*
X155669630Y-96448030D01*
X156586887Y-96003600D02*
X156501100Y-96003600D01*
X156969570Y-95927480D02*
X156586887Y-96003600D01*
X155501100Y-98439389D02*
X155520315Y-98634479D01*
X156501100Y-96003600D02*
X156306010Y-96022815D01*
X155669630Y-96448030D02*
X155577220Y-96620917D01*
X157293993Y-95710707D02*
X157293993Y-95710707D01*
X156501100Y-96003600D02*
X156501100Y-96003600D01*
X157361100Y-94813600D02*
X157361100Y-95548697D01*
X155520315Y-98634479D02*
X155577221Y-98822071D01*
X155501100Y-98439388D02*
X155501100Y-98439389D01*
X157142456Y-95835070D02*
X156969570Y-95927480D01*
X156118417Y-96079720D02*
X155945530Y-96172130D01*
X155793993Y-99146494D02*
X156651100Y-100003600D01*
X157293993Y-95710707D02*
X157142456Y-95835070D01*
D53*
X157437220Y-97886283D02*
X157529630Y-98059170D01*
X157380315Y-97698690D02*
X157437220Y-97886283D01*
X157978417Y-98427480D02*
X158361100Y-98503600D01*
X159131977Y-98484385D02*
X159319570Y-98427479D01*
X157361100Y-97503600D02*
X157361100Y-97503600D01*
X159319570Y-98427479D02*
X159643993Y-98210707D01*
X157529630Y-98059170D02*
X157653993Y-98210707D01*
X157805530Y-98335070D02*
X157978417Y-98427480D01*
X158936887Y-98503600D02*
X158936887Y-98503600D01*
X158936887Y-98503600D02*
X159131977Y-98484385D01*
X159643993Y-98210707D02*
X161001100Y-96853600D01*
X158361100Y-98503600D02*
X158936887Y-98503600D01*
X157653993Y-98210707D02*
X157805530Y-98335070D01*
X157361100Y-97503600D02*
X157380315Y-97698690D01*
X157361100Y-97313600D02*
X157361100Y-97503600D01*
D58*
X143501100Y-81003600D02*
X143501100Y-68433600D01*
D53*
X157762221Y-88157071D02*
X157978993Y-88481494D01*
X157686100Y-87774389D02*
X157705315Y-87969479D01*
D58*
X144751100Y-83168664D02*
X144479196Y-82986983D01*
D55*
X157036100Y-83888600D02*
X157017257Y-83769628D01*
D53*
X159501100Y-95709388D02*
X159501100Y-95709388D01*
X159424979Y-96092071D02*
X159208206Y-96416494D01*
D58*
X143586285Y-81650648D02*
X143501100Y-81003600D01*
X143501100Y-68433600D02*
X143501100Y-68433600D01*
X144233333Y-82771367D02*
X144017717Y-82525504D01*
D53*
X159501100Y-95709388D02*
X159481885Y-95904478D01*
D58*
X146001100Y-83503600D02*
X145674785Y-83482212D01*
X144017717Y-82525504D02*
X143836036Y-82253600D01*
X145044391Y-83313299D02*
X144751100Y-83168664D01*
D53*
X159501100Y-90003600D02*
X159501100Y-95709388D01*
D55*
X157017257Y-83769628D02*
X156962572Y-83662303D01*
D58*
X145354052Y-83418415D02*
X145044391Y-83313299D01*
X143691401Y-81960309D02*
X143586285Y-81650648D01*
D53*
X157978993Y-88481494D02*
X159501100Y-90003600D01*
X159208206Y-96416494D02*
X158311100Y-97313600D01*
X159481885Y-95904478D02*
X159424979Y-96092071D01*
X157705315Y-87969479D02*
X157762221Y-88157071D01*
D58*
X144479196Y-82986983D02*
X144233333Y-82771367D01*
X146001100Y-83503600D02*
X146001100Y-83503600D01*
X143501100Y-68433600D02*
X143471100Y-68403600D01*
D55*
X157036100Y-83888600D02*
X157036100Y-86465600D01*
D53*
X157686100Y-86465600D02*
X157686100Y-87774388D01*
D55*
X156962572Y-83662303D02*
X156877397Y-83577128D01*
D58*
X156651100Y-83503600D02*
X146001100Y-83503600D01*
X145674785Y-83482212D02*
X145354052Y-83418415D01*
D55*
X157036100Y-83888600D02*
X157036100Y-83888600D01*
D58*
X143836036Y-82253600D02*
X143691401Y-81960309D01*
D55*
X156877397Y-83577128D02*
X156651100Y-83503600D01*
D53*
X157686100Y-87774388D02*
X157686100Y-87774389D01*
D55*
X157036100Y-86465600D02*
X157686100Y-86465600D01*
D53*
X158311100Y-94813600D02*
X159001100Y-94123600D01*
X159001100Y-94123600D02*
X159001100Y-90503600D01*
X156678992Y-88181494D02*
X156554630Y-88029957D01*
X156678993Y-88181494D02*
X156678992Y-88181494D01*
X156554630Y-88029957D02*
X156462220Y-87857071D01*
X159001100Y-90503600D02*
X156678993Y-88181494D01*
X156386100Y-87474388D02*
X156386100Y-86465600D01*
X156462220Y-87857071D02*
X156386100Y-87474388D01*
D55*
X156386100Y-92341600D02*
X156411100Y-92366600D01*
X156411100Y-92366600D02*
X156411100Y-94813600D01*
X184665484Y-91693360D02*
X182675818Y-92718304D01*
X151310640Y-123183703D02*
X151086534Y-123321036D01*
X152001100Y-116003600D02*
X152001100Y-121828600D01*
D56*
X150326100Y-123503600D02*
X148568993Y-125260707D01*
D55*
X151681203Y-122813140D02*
X151510504Y-123013004D01*
X152001100Y-121828600D02*
X151980478Y-122090628D01*
D56*
X148417456Y-125385070D02*
X148244570Y-125477480D01*
X148568993Y-125260707D02*
X148417456Y-125385070D01*
D55*
X151510504Y-123013004D02*
X151310640Y-123183703D01*
X151919120Y-122346203D02*
X151818536Y-122589034D01*
D56*
X148568993Y-125260707D02*
X148568993Y-125260707D01*
D55*
X151980478Y-122090628D02*
X151919120Y-122346203D01*
D56*
X148244570Y-125477480D02*
X147861887Y-125553600D01*
D55*
X150751100Y-116053600D02*
X150801100Y-116003600D01*
X150751100Y-116053600D02*
X150751100Y-116053600D01*
D56*
X147861887Y-125553600D02*
X145501100Y-125553600D01*
D55*
X152001100Y-121828600D02*
X152001100Y-121828600D01*
X151086534Y-123321036D02*
X150843703Y-123421620D01*
X150801100Y-116003600D02*
X152001100Y-116003600D01*
X151818536Y-122589034D02*
X151681203Y-122813140D01*
X150843703Y-123421620D02*
X150326100Y-123503600D01*
X148351100Y-118003600D02*
X148351100Y-116003600D01*
X150751100Y-117953600D02*
X150701100Y-118003600D01*
X150701100Y-118003600D02*
X148351100Y-118003600D01*
D56*
X134945530Y-115672130D02*
X135118417Y-115579720D01*
X136001100Y-115503600D02*
X136196190Y-115484385D01*
X143761100Y-98353600D02*
X144111100Y-98003600D01*
X137001100Y-114503600D02*
X137001100Y-98353600D01*
X135118417Y-115579720D02*
X135501100Y-115503600D01*
X134501100Y-116753600D02*
X129501100Y-116753600D01*
X129501100Y-116753600D02*
X129501100Y-116853600D01*
X135501100Y-115503600D02*
X136001100Y-115503600D01*
X136001100Y-115503600D02*
X136001100Y-115503600D01*
X134501100Y-116753600D02*
X134501100Y-116503600D01*
X134793993Y-115796493D02*
X134945530Y-115672130D01*
X143761100Y-98353600D02*
X141501100Y-98353600D01*
X134501100Y-116503600D02*
X134520315Y-116308510D01*
X134501100Y-119602400D02*
X134501100Y-116753600D01*
X136556670Y-115335070D02*
X136708207Y-115210707D01*
X136924980Y-114886283D02*
X137001100Y-114503600D01*
X136832570Y-115059170D02*
X136924980Y-114886283D01*
X134520315Y-116308510D02*
X134577220Y-116120917D01*
X137001100Y-98353600D02*
X139001100Y-98353600D01*
X136196190Y-115484385D02*
X136383783Y-115427480D01*
X137001100Y-98353600D02*
X136501100Y-98353600D01*
X134669630Y-115948030D02*
X134793993Y-115796493D01*
X136383783Y-115427480D02*
X136556670Y-115335070D01*
X141501100Y-98353600D02*
X139001100Y-98353600D01*
X134577220Y-116120917D02*
X134669630Y-115948030D01*
X136708207Y-115210707D02*
X136832570Y-115059170D01*
X134501100Y-116503600D02*
X134501100Y-116503600D01*
D55*
X159854653Y-123357153D02*
X159751100Y-123436613D01*
D56*
X154626100Y-119742813D02*
X154626100Y-123503600D01*
X157351100Y-123503600D02*
X157501100Y-123353600D01*
D55*
X185981885Y-94197354D02*
X185924979Y-94009761D01*
X159984063Y-123133010D02*
X159934113Y-123253600D01*
D56*
X154333206Y-119035707D02*
X154333206Y-119035707D01*
D55*
X186052415Y-96657547D02*
X186949784Y-99349654D01*
D56*
X154457569Y-119187243D02*
X154549979Y-119360130D01*
D55*
X186949784Y-99349654D02*
X186949784Y-99349654D01*
X187001100Y-103589388D02*
X186981885Y-103784478D01*
X186981885Y-103784478D02*
X186924979Y-103972071D01*
X159751100Y-123436613D02*
X159630510Y-123486563D01*
X186708206Y-104296494D02*
X186001100Y-105003600D01*
X185501100Y-105003600D02*
X186001100Y-105003600D01*
X187001100Y-99665879D02*
X187001100Y-103589388D01*
X186001100Y-96341322D02*
X186001100Y-94392444D01*
X187001100Y-103589388D02*
X187001100Y-103589388D01*
D56*
X157351100Y-123503600D02*
X154626100Y-123503600D01*
D55*
X159630510Y-123486563D02*
X159501100Y-123503600D01*
D56*
X153251100Y-117953600D02*
X154333206Y-119035707D01*
D55*
X186001100Y-96341322D02*
X186052415Y-96657547D01*
X186924979Y-103972071D02*
X186708206Y-104296494D01*
X185708206Y-93685338D02*
X185336712Y-93313844D01*
X159501100Y-123503600D02*
X157351100Y-123503600D01*
X186001100Y-94392445D02*
X185981885Y-94197354D01*
X160001100Y-123003600D02*
X160001100Y-123003600D01*
D56*
X154549979Y-119360130D02*
X154626100Y-119742813D01*
D55*
X160001100Y-123003600D02*
X159984063Y-123133010D01*
X186001100Y-94392444D02*
X186001100Y-94392445D01*
D56*
X154333206Y-119035707D02*
X154457569Y-119187243D01*
D55*
X159934113Y-123253600D02*
X159854653Y-123357153D01*
X186949784Y-99349654D02*
X187001100Y-99665879D01*
X185924979Y-94009761D02*
X185708206Y-93685338D01*
X153251100Y-117003600D02*
X153251100Y-117953600D01*
X186001100Y-96341322D02*
X186001100Y-96341322D01*
D53*
X150330347Y-105024834D02*
X150479653Y-105098270D01*
X148793700Y-105003600D02*
X150001100Y-105003600D01*
D54*
X153040000Y-109799200D02*
X153040000Y-108999100D01*
D53*
X150001100Y-105003600D02*
X150001100Y-105003600D01*
X152351100Y-108853600D02*
X153001100Y-108853600D01*
X150167121Y-104992544D02*
X150330347Y-105024834D01*
D54*
X156951600Y-113710800D02*
X153040000Y-109799200D01*
D53*
X150001100Y-105003600D02*
X150167121Y-104992544D01*
X150751100Y-107253600D02*
X152351100Y-108853600D01*
X150697451Y-105346097D02*
X150751100Y-105503600D01*
X150479653Y-105098270D02*
X150604866Y-105207847D01*
X150604866Y-105207847D02*
X150697451Y-105346097D01*
X150751100Y-105503600D02*
X150751100Y-107253600D01*
D54*
X156951600Y-113710800D02*
X157001100Y-114329600D01*
X153040000Y-108999100D02*
X153001100Y-108853600D01*
D53*
X157001100Y-114329600D02*
X157001100Y-113853600D01*
X148793700Y-104203600D02*
X148793700Y-104203600D01*
X149101238Y-103461138D02*
X149260351Y-103330557D01*
X152001100Y-103153600D02*
X149843700Y-103153600D01*
X156710042Y-103781815D02*
X156554731Y-103599969D01*
X148813875Y-103998755D02*
X148873626Y-103801782D01*
X156834994Y-103985718D02*
X156710042Y-103781815D01*
X156168982Y-103319706D02*
X155948042Y-103228190D01*
X157001100Y-104677600D02*
X156982337Y-104439194D01*
X155477100Y-103153600D02*
X152001100Y-103153600D01*
X156372885Y-103444658D02*
X156168982Y-103319706D01*
X149260351Y-103330557D02*
X149441882Y-103233526D01*
X156926510Y-104206658D02*
X156834994Y-103985718D01*
X148970657Y-103620251D02*
X149101238Y-103461138D01*
X149441882Y-103233526D02*
X149843700Y-103153600D01*
X156554731Y-103599969D02*
X156372885Y-103444658D01*
X157001100Y-104677600D02*
X157001100Y-104677600D01*
X148873626Y-103801782D02*
X148970657Y-103620251D01*
X156982337Y-104439194D02*
X156926510Y-104206658D01*
X148793700Y-104203600D02*
X148813875Y-103998755D01*
X155948042Y-103228190D02*
X155477100Y-103153600D01*
D55*
X167415312Y-101503600D02*
X167220222Y-101522815D01*
X166543993Y-101960707D02*
X166392456Y-102085070D01*
X167032629Y-101579721D02*
X166708206Y-101796494D01*
X168501100Y-101153600D02*
X168151100Y-101503600D01*
X166219570Y-102177480D02*
X165836887Y-102253600D01*
X167220222Y-101522815D02*
X167032629Y-101579721D01*
X166708206Y-101796494D02*
X166543993Y-101960707D01*
X167415312Y-101503600D02*
X167415312Y-101503600D01*
X168151100Y-101503600D02*
X167415312Y-101503600D01*
X166543993Y-101960707D02*
X166543993Y-101960707D01*
X166392456Y-102085070D02*
X166219570Y-102177480D01*
X165836887Y-102253600D02*
X165271100Y-102253600D01*
D53*
X128647547Y-100650047D02*
X128751100Y-100570587D01*
X128568087Y-100753600D02*
X128647547Y-100650047D01*
X128518137Y-100874190D02*
X128568087Y-100753600D01*
X134246245Y-101355639D02*
X134310531Y-101575178D01*
X134145443Y-101150287D02*
X134246245Y-101355639D01*
X134310531Y-101575178D02*
X134336418Y-101802467D01*
X133847104Y-100805641D02*
X134011083Y-100965144D01*
X129001100Y-100503600D02*
X133001100Y-100503600D01*
X133658315Y-100676455D02*
X133847104Y-100805641D01*
X133001100Y-100503600D02*
X133001099Y-100503600D01*
X128501100Y-101003600D02*
X128518137Y-100874190D01*
X134011083Y-100965144D02*
X134145443Y-101150287D01*
X128751100Y-100570587D02*
X128871690Y-100520637D01*
X133450252Y-100581374D02*
X133658315Y-100676455D01*
X128501100Y-101153600D02*
X128501100Y-101003600D01*
X128871690Y-100520637D02*
X129001100Y-100503600D01*
X133001099Y-100503600D02*
X133229017Y-100523187D01*
X128501100Y-101003600D02*
X128501100Y-101003600D01*
X133229017Y-100523187D02*
X133450252Y-100581374D01*
X134336418Y-101802467D02*
X134271100Y-102253600D01*
X153501100Y-76353600D02*
X148501100Y-76273600D01*
X164675818Y-80788900D02*
X160265090Y-78676929D01*
X172150056Y-88104644D02*
X168853071Y-84807660D01*
X168853071Y-84807660D02*
X168853071Y-84651629D01*
X176965800Y-97828882D02*
X174827771Y-93489610D01*
X177401100Y-105173600D02*
X177401100Y-109753600D01*
X177231100Y-105003600D02*
X177401100Y-105173600D01*
X172965800Y-121178322D02*
X174827771Y-116517594D01*
X165400056Y-128652560D02*
X168853071Y-125355575D01*
X155675818Y-133218304D02*
X160015090Y-131330275D01*
X143501100Y-133653600D02*
X148501100Y-133733600D01*
X132326378Y-129468304D02*
X136987106Y-131330275D01*
X124286396Y-89078882D02*
X122174425Y-93489610D01*
X131602140Y-81104644D02*
X128149125Y-84651629D01*
X141326378Y-76538900D02*
X136987106Y-78676929D01*
D55*
X165405004Y-82963427D02*
X165130631Y-83158106D01*
X164076316Y-84836037D02*
X164001100Y-85503600D01*
X164169450Y-84512763D02*
X164076316Y-84836037D01*
X170297150Y-82503600D02*
X167001100Y-82503600D01*
X166333537Y-82578816D02*
X166010263Y-82671950D01*
X165130631Y-83158106D02*
X164879780Y-83382280D01*
X166665207Y-82522463D02*
X166333537Y-82578816D01*
X164001100Y-85503600D02*
X164001100Y-86403600D01*
X165699449Y-82800693D02*
X165405004Y-82963427D01*
X164298193Y-84201949D02*
X164169450Y-84512763D01*
X170504036Y-82570822D02*
X170297150Y-82503600D01*
X170581904Y-82648691D02*
X170504036Y-82570822D01*
X164655606Y-83633131D02*
X164460927Y-83907504D01*
X170649125Y-82855577D02*
X170631898Y-82746810D01*
X166010263Y-82671950D02*
X165699449Y-82800693D01*
X170649125Y-82855575D02*
X170649125Y-82855577D01*
X167001100Y-82503600D02*
X167001100Y-82503600D01*
X164879780Y-83382280D02*
X164655606Y-83633131D01*
X167001100Y-82503600D02*
X166665207Y-82522463D01*
X170631898Y-82746810D02*
X170581904Y-82648691D01*
X164460927Y-83907504D02*
X164298193Y-84201949D01*
D53*
X178227809Y-102693901D02*
X177918148Y-102588785D01*
X179580799Y-104046891D02*
X179436164Y-103753600D01*
X178521100Y-102838536D02*
X178227809Y-102693901D01*
X179771100Y-105003600D02*
X179771100Y-105003600D01*
X177271100Y-102503600D02*
X172601100Y-102503600D01*
X179436164Y-103753600D02*
X179254483Y-103481696D01*
X179685915Y-104356552D02*
X179580799Y-104046891D01*
X179254483Y-103481696D02*
X179038867Y-103235833D01*
X177918148Y-102588785D02*
X177271100Y-102503600D01*
X178793004Y-103020217D02*
X178521100Y-102838536D01*
X179771100Y-105003600D02*
X179749712Y-104677285D01*
X179038867Y-103235833D02*
X178793004Y-103020217D01*
X179749712Y-104677285D02*
X179685915Y-104356552D01*
D55*
X131783311Y-126983212D02*
X131509260Y-127076240D01*
X132283510Y-126694421D02*
X132042875Y-126855209D01*
X132501100Y-126503600D02*
X132501100Y-126503600D01*
X134501100Y-124603600D02*
X132671809Y-126432891D01*
X130936621Y-127151629D02*
X126353071Y-127151629D01*
X132671809Y-126432892D02*
X132501100Y-126503600D01*
X132042875Y-126855209D02*
X131783311Y-126983212D01*
X131509260Y-127076240D02*
X131225411Y-127132702D01*
X131225411Y-127132702D02*
X130936621Y-127151629D01*
X132501100Y-126503600D02*
X132283510Y-126694421D01*
X132671809Y-126432891D02*
X132671809Y-126432892D01*
D53*
X119521593Y-94751528D02*
X119583010Y-94001689D01*
X122195115Y-97587869D02*
X121850656Y-97524744D01*
X124401100Y-100403600D02*
X124401100Y-100403600D01*
X123887753Y-98756212D02*
X123671781Y-98480544D01*
X120419818Y-97186107D02*
X120191379Y-97015099D01*
X124316831Y-99709585D02*
X124212647Y-99375246D01*
X119681836Y-96334430D02*
X119582114Y-96067065D01*
X121501100Y-97503600D02*
X121216470Y-97483243D01*
X119989601Y-96813321D02*
X119818593Y-96584882D01*
X121216470Y-97483243D02*
X120937635Y-97422586D01*
X123424156Y-98232919D02*
X123148488Y-98016947D01*
X121501100Y-97503600D02*
X121501100Y-97503600D01*
X120670270Y-97322864D02*
X120419818Y-97186107D01*
X119582114Y-96067065D02*
X119521457Y-95788230D01*
X124212647Y-99375246D02*
X124068922Y-99055903D01*
X119818593Y-96584882D02*
X119681836Y-96334430D01*
X119521457Y-95788230D02*
X119501100Y-95503600D01*
X120191379Y-97015099D02*
X119989601Y-96813321D01*
X122848797Y-97835778D02*
X122529454Y-97692053D01*
X121850656Y-97524744D02*
X121501100Y-97503600D01*
X122529454Y-97692053D02*
X122195115Y-97587869D01*
X119583010Y-94001689D02*
X119827771Y-92517594D01*
X124379956Y-100054044D02*
X124316831Y-99709585D01*
X124401100Y-103003600D02*
X124401100Y-100403600D01*
X124401100Y-100403600D02*
X124379956Y-100054044D01*
X123148488Y-98016947D02*
X122848797Y-97835778D01*
X120937635Y-97422586D02*
X120670270Y-97322864D01*
X124068922Y-99055903D02*
X123887753Y-98756212D01*
X119501100Y-95503600D02*
X119501100Y-95503600D01*
X123671781Y-98480544D02*
X123424156Y-98232919D01*
X119501100Y-95503600D02*
X119521593Y-94751528D01*
D55*
X163051100Y-90603600D02*
X163001100Y-90653600D01*
X163051100Y-88503600D02*
X163051100Y-90603600D01*
X171332569Y-102412243D02*
X171424979Y-102585130D01*
X171424979Y-102585130D02*
X171501100Y-102967813D01*
X171577221Y-104472071D02*
X171793993Y-104796494D01*
X170501100Y-101553600D02*
X171208206Y-102260707D01*
X171793993Y-104796494D02*
X172351100Y-105353600D01*
X172351100Y-105353600D02*
X172351100Y-106003600D01*
X171208206Y-102260707D02*
X171208206Y-102260707D01*
X171501100Y-104089388D02*
X171501100Y-104089389D01*
X171501100Y-104089389D02*
X171520315Y-104284479D01*
X171501100Y-102967813D02*
X171501100Y-104089388D01*
X171208206Y-102260707D02*
X171332569Y-102412243D01*
X171520315Y-104284479D02*
X171577221Y-104472071D01*
D53*
X136443993Y-122796494D02*
X136292457Y-122672131D01*
X136292457Y-122672131D02*
X136119570Y-122579721D01*
X136443993Y-122796494D02*
X136443993Y-122796494D01*
X136119570Y-122579721D02*
X135736887Y-122503600D01*
X135736887Y-122503600D02*
X135451100Y-122503600D01*
X138001100Y-124353600D02*
X136443993Y-122796494D01*
D55*
X125001100Y-105003600D02*
X125001100Y-105653600D01*
X126051100Y-103953600D02*
X125001100Y-105003600D01*
X126501100Y-103953600D02*
X126051100Y-103953600D01*
X125001100Y-105653600D02*
X124651100Y-106003600D01*
D53*
X119851100Y-99753600D02*
X119771100Y-105003600D01*
X119786396Y-111928322D02*
X122174425Y-116517594D01*
X124602140Y-121902560D02*
X128149125Y-125355575D01*
M02*
